# MagicaVoxel @ ephtracy

# material
mtllib elder.mtl
usemtl palette

# normals
vn -1 0 0
vn 1 0 0
vn 0 0 1
vn 0 0 -1
vn 0 -1 0
vn 0 1 0

# texcoords
vt 0.00195313 0.5
vt 0.0332031 0.5
vt 0.0449219 0.5
vt 0.0566406 0.5
vt 0.0605469 0.5
vt 0.142578 0.5
vt 0.310547 0.5
vt 0.521484 0.5
vt 0.611328 0.5
vt 0.615234 0.5
vt 0.634766 0.5
vt 0.646484 0.5
vt 0.978516 0.5
vt 0.982422 0.5
vt 0.994141 0.5

# verts
v -4 4 3
v -4 4 1
v -4 5 3
v -4 5 1
v -4 5 -1
v -4 6 1
v -4 6 -1
v -4 10 3
v -4 10 2
v -4 11 3
v -4 11 2
v -3 1 2
v -3 1 -3
v -3 3 2
v -3 3 -3
v -3 4 2
v -3 4 1
v -3 4 -3
v -3 5 2
v -3 5 1
v -3 5 -1
v -3 5 -3
v -3 6 1
v -3 6 -1
v -3 7 2
v -3 7 -3
v -3 10 2
v -3 11 2
v -3 12 2
v -3 12 -3
v -2 0 -0
v -2 0 -1
v -2 1 -0
v -2 1 -1
v -2 9 3
v -2 9 2
v -2 10 3
v -2 10 2
v -2 12 1
v -2 12 -2
v -2 13 1
v -2 13 -2
v -1 7 3
v -1 7 2
v -1 8 2
v -1 9 3
v -1 9 2
v 1 0 -0
v 1 0 -1
v 1 1 -0
v 1 1 -1
v 1 9 3
v 1 9 2
v 1 10 3
v 1 10 2
v 2 10 3
v 2 10 2
v 2 11 3
v 2 11 2
v -2 10 3
v -2 10 2
v -2 11 3
v -2 11 2
v -1 0 -0
v -1 0 -1
v -1 1 -0
v -1 1 -1
v -1 9 3
v -1 9 2
v -1 10 3
v -1 10 2
v 0 8 3
v 0 8 2
v 0 9 3
v 0 9 2
v 1 7 3
v 1 7 2
v 1 8 3
v 1 8 2
v 2 0 -0
v 2 0 -1
v 2 1 -0
v 2 1 -1
v 2 9 3
v 2 9 2
v 2 10 3
v 2 10 2
v 2 12 1
v 2 12 -2
v 2 13 1
v 2 13 -2
v 3 1 2
v 3 1 -3
v 3 3 2
v 3 3 -3
v 3 4 2
v 3 4 1
v 3 4 -2
v 3 4 -3
v 3 5 2
v 3 5 1
v 3 5 -1
v 3 5 -2
v 3 5 -3
v 3 6 1
v 3 6 -1
v 3 10 2
v 3 11 2
v 3 12 2
v 3 12 -3
v 4 4 3
v 4 4 1
v 4 5 3
v 4 5 1
v 4 5 -1
v 4 6 1
v 4 6 -1
v 4 10 3
v 4 10 2
v 4 11 3
v 4 11 2
v -4 4 3
v -4 5 3
v -4 10 3
v -4 11 3
v -2 4 3
v -2 5 3
v -2 9 3
v -2 10 3
v -2 11 3
v -1 4 3
v -1 5 3
v -1 7 3
v -1 9 3
v -1 10 3
v 0 8 3
v 0 9 3
v 1 4 3
v 1 5 3
v 1 7 3
v 1 8 3
v 1 9 3
v 1 10 3
v 2 4 3
v 2 5 3
v 2 9 3
v 2 10 3
v 2 11 3
v 4 4 3
v 4 5 3
v 4 10 3
v 4 11 3
v -3 1 2
v -3 3 2
v -3 4 2
v -3 5 2
v -3 7 2
v -3 10 2
v -3 11 2
v -3 12 2
v -2 4 2
v -2 5 2
v -2 6 2
v -2 7 2
v -2 8 2
v -2 9 2
v -2 10 2
v -2 11 2
v -2 12 2
v -1 1 2
v -1 3 2
v -1 4 2
v -1 5 2
v -1 7 2
v -1 8 2
v -1 9 2
v -1 10 2
v 0 8 2
v 0 9 2
v 1 1 2
v 1 3 2
v 1 4 2
v 1 5 2
v 1 7 2
v 1 8 2
v 1 9 2
v 1 10 2
v 1 11 2
v 1 12 2
v 2 4 2
v 2 5 2
v 2 6 2
v 2 7 2
v 2 8 2
v 2 9 2
v 2 10 2
v 2 11 2
v 2 12 2
v 3 1 2
v 3 3 2
v 3 4 2
v 3 5 2
v 3 10 2
v 3 11 2
v 3 12 2
v -4 5 1
v -4 6 1
v -3 5 1
v -3 6 1
v -2 12 1
v -2 13 1
v -1 12 1
v -1 13 1
v 1 12 1
v 2 12 1
v 2 13 1
v 3 5 1
v 3 6 1
v 4 5 1
v 4 6 1
v -2 0 -0
v -2 1 -0
v -1 0 -0
v -1 1 -0
v 1 0 -0
v 1 1 -0
v 2 0 -0
v 2 1 -0
v -4 10 2
v -4 11 2
v -3 10 2
v -3 11 2
v 3 10 2
v 3 11 2
v 4 10 2
v 4 11 2
v -4 4 1
v -4 5 1
v -3 4 1
v -3 5 1
v 3 4 1
v 3 5 1
v 4 4 1
v 4 5 1
v -4 5 -1
v -4 6 -1
v -3 5 -1
v -3 6 -1
v -2 0 -1
v -2 1 -1
v -1 0 -1
v -1 1 -1
v 1 0 -1
v 1 1 -1
v 2 0 -1
v 2 1 -1
v 3 5 -1
v 3 6 -1
v 4 5 -1
v 4 6 -1
v -2 12 -2
v -2 13 -2
v -1 12 -2
v -1 13 -2
v 2 12 -2
v 2 13 -2
v -3 1 -3
v -3 3 -3
v -3 4 -3
v -3 5 -3
v -3 7 -3
v -3 12 -3
v -2 7 -3
v -2 12 -3
v 3 1 -3
v 3 3 -3
v 3 4 -3
v 3 5 -3
v 3 12 -3
v -2 0 -0
v -1 0 -0
v 1 0 -0
v 2 0 -0
v -2 0 -1
v -1 0 -1
v 1 0 -1
v 2 0 -1
v -3 1 2
v -1 1 2
v 1 1 2
v 3 1 2
v -1 1 1
v 1 1 1
v -2 1 -0
v -1 1 -0
v 1 1 -0
v 2 1 -0
v -2 1 -1
v -1 1 -1
v 1 1 -1
v 2 1 -1
v -3 1 -3
v 3 1 -3
v -4 4 3
v -2 4 3
v -1 4 3
v 1 4 3
v 2 4 3
v 4 4 3
v -3 4 2
v -2 4 2
v -1 4 2
v 1 4 2
v 2 4 2
v 3 4 2
v -4 4 1
v -3 4 1
v 3 4 1
v 4 4 1
v -4 5 1
v -3 5 1
v 3 5 1
v 4 5 1
v -4 5 -1
v -3 5 -1
v 3 5 -1
v 4 5 -1
v -1 7 3
v 1 7 3
v -1 7 2
v 1 7 2
v -2 9 3
v -1 9 3
v 1 9 3
v 2 9 3
v -2 9 2
v -1 9 2
v 1 9 2
v 2 9 2
v -4 10 3
v -2 10 3
v 2 10 3
v 4 10 3
v -4 10 2
v -3 10 2
v -2 10 2
v 2 10 2
v 3 10 2
v 4 10 2
v -4 5 3
v -2 5 3
v -1 5 3
v 1 5 3
v 2 5 3
v 4 5 3
v -3 5 2
v -2 5 2
v -1 5 2
v 1 5 2
v 2 5 2
v 3 5 2
v -4 5 1
v -3 5 1
v 3 5 1
v 4 5 1
v -4 6 1
v -3 6 1
v 3 6 1
v 4 6 1
v -4 6 -1
v -3 6 -1
v 3 6 -1
v 4 6 -1
v 0 8 3
v 1 8 3
v 0 8 2
v 1 8 2
v -1 9 3
v 0 9 3
v -1 9 2
v 0 9 2
v -2 10 3
v -1 10 3
v 1 10 3
v 2 10 3
v -2 10 2
v -1 10 2
v 1 10 2
v 2 10 2
v -4 11 3
v -2 11 3
v 2 11 3
v 4 11 3
v -4 11 2
v -3 11 2
v -2 11 2
v 2 11 2
v 3 11 2
v 4 11 2
v -3 12 2
v -2 12 2
v 1 12 2
v 2 12 2
v 3 12 2
v -2 12 1
v -1 12 1
v 1 12 1
v 2 12 1
v -2 12 -2
v -1 12 -2
v 2 12 -2
v -3 12 -3
v -2 12 -3
v 3 12 -3
v -2 13 1
v -1 13 1
v 2 13 1
v -2 13 -2
v -1 13 -2
v 2 13 -2

# faces
f 3/4/1 2/4/1 1/4/1
f 4/4/1 2/4/1 3/4/1
f 6/4/1 5/4/1 4/4/1
f 7/4/1 5/4/1 6/4/1
f 10/14/1 9/14/1 8/14/1
f 11/14/1 9/14/1 10/14/1
f 14/10/1 13/10/1 12/10/1
f 15/10/1 13/10/1 14/10/1
f 16/3/1 15/3/1 14/3/1
f 17/3/1 15/3/1 16/3/1
f 18/3/1 15/3/1 17/3/1
f 20/7/1 18/7/1 17/7/1
f 21/7/1 18/7/1 20/7/1
f 22/7/1 18/7/1 21/7/1
f 23/4/1 20/4/1 19/4/1
f 24/4/1 22/4/1 21/4/1
f 25/4/1 23/4/1 19/4/1
f 25/4/1 24/4/1 23/4/1
f 26/4/1 22/4/1 24/4/1
f 26/4/1 24/4/1 25/4/1
f 27/5/1 26/5/1 25/5/1
f 28/5/1 26/5/1 27/5/1
f 29/5/1 26/5/1 28/5/1
f 30/5/1 26/5/1 29/5/1
f 33/3/1 32/3/1 31/3/1
f 34/3/1 32/3/1 33/3/1
f 37/13/1 36/13/1 35/13/1
f 38/13/1 36/13/1 37/13/1
f 41/5/1 40/5/1 39/5/1
f 42/5/1 40/5/1 41/5/1
f 45/5/1 44/5/1 43/5/1
f 46/5/1 45/5/1 43/5/1
f 47/5/1 45/5/1 46/5/1
f 50/3/1 49/3/1 48/3/1
f 51/3/1 49/3/1 50/3/1
f 54/14/1 53/14/1 52/14/1
f 55/14/1 53/14/1 54/14/1
f 58/14/1 57/14/1 56/14/1
f 59/14/1 57/14/1 58/14/1
f 60/14/2 61/14/2 62/14/2
f 62/14/2 61/14/2 63/14/2
f 64/3/2 65/3/2 66/3/2
f 66/3/2 65/3/2 67/3/2
f 68/13/2 69/13/2 70/13/2
f 70/13/2 69/13/2 71/13/2
f 72/5/2 73/5/2 74/5/2
f 74/5/2 73/5/2 75/5/2
f 76/5/2 77/5/2 78/5/2
f 78/5/2 77/5/2 79/5/2
f 80/3/2 81/3/2 82/3/2
f 82/3/2 81/3/2 83/3/2
f 84/14/2 85/14/2 86/14/2
f 86/14/2 85/14/2 87/14/2
f 88/4/2 89/4/2 90/4/2
f 90/4/2 89/4/2 91/4/2
f 92/10/2 93/10/2 94/10/2
f 94/10/2 93/10/2 95/10/2
f 94/3/2 95/3/2 96/3/2
f 96/3/2 95/3/2 97/3/2
f 97/3/2 95/3/2 98/3/2
f 98/3/2 95/3/2 99/3/2
f 97/4/2 98/4/2 101/4/2
f 101/4/2 98/4/2 102/4/2
f 98/7/2 99/7/2 103/7/2
f 102/4/2 98/4/2 103/4/2
f 103/7/2 99/7/2 104/7/2
f 100/4/2 101/4/2 105/4/2
f 103/4/2 104/4/2 106/4/2
f 102/4/2 103/4/2 106/4/2
f 100/4/2 105/4/2 107/4/2
f 105/4/2 106/4/2 107/4/2
f 107/4/2 106/4/2 108/4/2
f 108/4/2 106/4/2 109/4/2
f 106/4/2 104/4/2 110/4/2
f 109/4/2 106/4/2 110/4/2
f 111/4/2 112/4/2 113/4/2
f 113/4/2 112/4/2 114/4/2
f 114/4/2 115/4/2 116/4/2
f 116/4/2 115/4/2 117/4/2
f 118/14/2 119/14/2 120/14/2
f 120/14/2 119/14/2 121/14/2
f 126/4/3 123/4/3 122/4/3
f 127/4/3 123/4/3 126/4/3
f 129/14/3 125/14/3 124/14/3
f 130/14/3 125/14/3 129/14/3
f 131/5/3 127/5/3 126/5/3
f 132/5/3 127/5/3 131/5/3
f 134/13/3 129/13/3 128/13/3
f 135/13/3 129/13/3 134/13/3
f 136/5/3 134/5/3 133/5/3
f 137/5/3 134/5/3 136/5/3
f 138/4/3 132/4/3 131/4/3
f 139/4/3 132/4/3 138/4/3
f 140/5/3 136/5/3 133/5/3
f 141/5/3 136/5/3 140/5/3
f 144/5/3 139/5/3 138/5/3
f 145/5/3 139/5/3 144/5/3
f 146/14/3 143/14/3 142/14/3
f 147/14/3 143/14/3 146/14/3
f 149/4/3 145/4/3 144/4/3
f 150/4/3 145/4/3 149/4/3
f 151/14/3 148/14/3 147/14/3
f 152/14/3 148/14/3 151/14/3
f 161/3/3 155/3/3 154/3/3
f 162/4/3 157/4/3 156/4/3
f 163/4/3 157/4/3 162/4/3
f 164/5/3 158/5/3 157/5/3
f 164/4/3 157/4/3 163/4/3
f 165/5/3 158/5/3 164/5/3
f 166/5/3 158/5/3 165/5/3
f 167/5/3 158/5/3 166/5/3
f 168/5/3 160/5/3 159/5/3
f 169/5/3 160/5/3 168/5/3
f 170/10/3 154/10/3 153/10/3
f 171/3/3 161/3/3 154/3/3
f 171/10/3 154/10/3 170/10/3
f 172/3/3 161/3/3 171/3/3
f 173/4/3 163/4/3 162/4/3
f 174/5/3 164/5/3 163/5/3
f 174/5/3 165/5/3 164/5/3
f 175/15/3 166/15/3 165/15/3
f 175/5/3 165/5/3 174/5/3
f 176/15/3 166/15/3 175/15/3
f 177/4/3 169/4/3 168/4/3
f 177/4/3 168/4/3 167/4/3
f 179/4/3 177/4/3 176/4/3
f 180/3/3 172/3/3 171/3/3
f 180/3/3 171/3/3 170/3/3
f 181/3/3 172/3/3 180/3/3
f 182/3/3 172/3/3 181/3/3
f 183/4/3 163/4/3 173/4/3
f 184/5/3 174/5/3 163/5/3
f 185/5/3 179/5/3 178/5/3
f 186/4/3 177/4/3 179/4/3
f 186/5/3 179/5/3 185/5/3
f 187/4/3 169/4/3 177/4/3
f 187/4/3 177/4/3 186/4/3
f 188/4/3 169/4/3 187/4/3
f 189/4/3 169/4/3 188/4/3
f 190/3/3 182/3/3 181/3/3
f 191/4/3 163/4/3 183/4/3
f 192/5/3 184/5/3 163/5/3
f 192/4/3 163/4/3 191/4/3
f 193/4/3 185/4/3 184/4/3
f 193/5/3 184/5/3 192/5/3
f 194/15/3 186/15/3 185/15/3
f 194/4/3 185/4/3 193/4/3
f 195/15/3 186/15/3 194/15/3
f 196/4/3 188/4/3 187/4/3
f 197/1/3 189/1/3 188/1/3
f 197/4/3 188/4/3 196/4/3
f 198/1/3 189/1/3 197/1/3
f 199/10/3 181/10/3 180/10/3
f 200/3/3 190/3/3 181/3/3
f 200/10/3 181/10/3 199/10/3
f 201/3/3 190/3/3 200/3/3
f 202/4/3 193/4/3 192/4/3
f 202/4/3 192/4/3 191/4/3
f 202/4/3 196/4/3 195/4/3
f 202/4/3 195/4/3 194/4/3
f 202/4/3 194/4/3 193/4/3
f 203/4/3 196/4/3 202/4/3
f 204/4/3 198/4/3 197/4/3
f 205/4/3 198/4/3 204/4/3
f 208/4/3 207/4/3 206/4/3
f 209/4/3 207/4/3 208/4/3
f 212/5/3 211/5/3 210/5/3
f 213/5/3 211/5/3 212/5/3
f 214/4/3 213/4/3 212/4/3
f 215/4/3 213/4/3 214/4/3
f 216/4/3 213/4/3 215/4/3
f 219/4/3 218/4/3 217/4/3
f 220/4/3 218/4/3 219/4/3
f 223/3/3 222/3/3 221/3/3
f 224/3/3 222/3/3 223/3/3
f 227/3/3 226/3/3 225/3/3
f 228/3/3 226/3/3 227/3/3
f 229/14/4 230/14/4 231/14/4
f 231/14/4 230/14/4 232/14/4
f 233/14/4 234/14/4 235/14/4
f 235/14/4 234/14/4 236/14/4
f 237/4/4 238/4/4 239/4/4
f 239/4/4 238/4/4 240/4/4
f 241/4/4 242/4/4 243/4/4
f 243/4/4 242/4/4 244/4/4
f 245/4/4 246/4/4 247/4/4
f 247/4/4 246/4/4 248/4/4
f 249/3/4 250/3/4 251/3/4
f 251/3/4 250/3/4 252/3/4
f 253/3/4 254/3/4 255/3/4
f 255/3/4 254/3/4 256/3/4
f 257/4/4 258/4/4 259/4/4
f 259/4/4 258/4/4 260/4/4
f 261/5/4 262/5/4 263/5/4
f 263/5/4 262/5/4 264/5/4
f 263/4/4 264/4/4 265/4/4
f 265/4/4 264/4/4 266/4/4
f 270/4/4 271/4/4 273/4/4
f 271/5/4 272/5/4 273/5/4
f 273/5/4 272/5/4 274/5/4
f 267/10/4 268/10/4 275/10/4
f 268/3/4 269/3/4 276/3/4
f 275/10/4 268/10/4 276/10/4
f 269/7/4 270/7/4 277/7/4
f 276/3/4 269/3/4 277/3/4
f 270/4/4 273/4/4 278/4/4
f 277/7/4 270/7/4 278/7/4
f 273/4/4 274/4/4 278/4/4
f 278/4/4 274/4/4 279/4/4
f 284/3/5 281/3/5 280/3/5
f 285/3/5 281/3/5 284/3/5
f 286/3/5 283/3/5 282/3/5
f 287/3/5 283/3/5 286/3/5
f 292/10/5 289/10/5 288/10/5
f 292/3/5 290/3/5 289/3/5
f 293/10/5 291/10/5 290/10/5
f 293/3/5 290/3/5 292/3/5
f 294/10/5 292/10/5 288/10/5
f 294/10/5 293/10/5 292/10/5
f 295/10/5 293/10/5 294/10/5
f 296/10/5 291/10/5 293/10/5
f 296/10/5 293/10/5 295/10/5
f 297/10/5 291/10/5 296/10/5
f 298/10/5 294/10/5 288/10/5
f 299/10/5 296/10/5 295/10/5
f 300/10/5 296/10/5 299/10/5
f 301/10/5 291/10/5 297/10/5
f 302/10/5 300/10/5 299/10/5
f 302/10/5 301/10/5 300/10/5
f 302/10/5 298/10/5 288/10/5
f 302/10/5 299/10/5 298/10/5
f 303/10/5 291/10/5 301/10/5
f 303/10/5 301/10/5 302/10/5
f 310/4/5 305/4/5 304/4/5
f 311/5/5 306/5/5 305/5/5
f 311/4/5 305/4/5 310/4/5
f 312/4/5 307/4/5 306/4/5
f 312/5/5 306/5/5 311/5/5
f 313/5/5 308/5/5 307/5/5
f 313/4/5 307/4/5 312/4/5
f 314/4/5 309/4/5 308/4/5
f 314/5/5 308/5/5 313/5/5
f 315/4/5 309/4/5 314/4/5
f 316/4/5 310/4/5 304/4/5
f 317/4/5 310/4/5 316/4/5
f 318/4/5 309/4/5 315/4/5
f 319/4/5 309/4/5 318/4/5
f 324/4/5 321/4/5 320/4/5
f 325/4/5 321/4/5 324/4/5
f 326/4/5 323/4/5 322/4/5
f 327/4/5 323/4/5 326/4/5
f 330/5/5 329/5/5 328/5/5
f 331/5/5 329/5/5 330/5/5
f 336/13/5 333/13/5 332/13/5
f 337/13/5 333/13/5 336/13/5
f 338/14/5 335/14/5 334/14/5
f 339/14/5 335/14/5 338/14/5
f 344/14/5 341/14/5 340/14/5
f 345/14/5 341/14/5 344/14/5
f 346/14/5 341/14/5 345/14/5
f 347/14/5 343/14/5 342/14/5
f 348/14/5 343/14/5 347/14/5
f 349/14/5 343/14/5 348/14/5
f 350/4/6 351/4/6 356/4/6
f 351/5/6 352/5/6 357/5/6
f 356/4/6 351/4/6 357/4/6
f 352/4/6 353/4/6 358/4/6
f 357/5/6 352/5/6 358/5/6
f 353/5/6 354/5/6 359/5/6
f 358/4/6 353/4/6 359/4/6
f 354/4/6 355/4/6 360/4/6
f 359/5/6 354/5/6 360/5/6
f 360/4/6 355/4/6 361/4/6
f 350/4/6 356/4/6 362/4/6
f 362/4/6 356/4/6 363/4/6
f 361/4/6 355/4/6 364/4/6
f 364/4/6 355/4/6 365/4/6
f 366/4/6 367/4/6 370/4/6
f 370/4/6 367/4/6 371/4/6
f 368/4/6 369/4/6 372/4/6
f 372/4/6 369/4/6 373/4/6
f 374/5/6 375/5/6 376/5/6
f 376/5/6 375/5/6 377/5/6
f 378/5/6 379/5/6 380/5/6
f 380/5/6 379/5/6 381/5/6
f 382/13/6 383/13/6 386/13/6
f 386/13/6 383/13/6 387/13/6
f 384/14/6 385/14/6 388/14/6
f 388/14/6 385/14/6 389/14/6
f 390/14/6 391/14/6 394/14/6
f 394/14/6 391/14/6 395/14/6
f 395/14/6 391/14/6 396/14/6
f 392/14/6 393/14/6 397/14/6
f 397/14/6 393/14/6 398/14/6
f 398/14/6 393/14/6 399/14/6
f 400/5/6 401/5/6 405/5/6
f 401/4/6 402/4/6 405/4/6
f 405/4/6 402/4/6 406/4/6
f 402/1/6 403/1/6 407/1/6
f 406/4/6 402/4/6 407/4/6
f 403/4/6 404/4/6 408/4/6
f 407/1/6 403/1/6 408/1/6
f 400/5/6 405/5/6 409/5/6
f 408/4/6 404/4/6 411/4/6
f 400/5/6 409/5/6 412/5/6
f 409/4/6 410/4/6 413/4/6
f 412/5/6 409/5/6 413/5/6
f 410/4/6 411/4/6 413/4/6
f 411/4/6 404/4/6 414/4/6
f 413/4/6 411/4/6 414/4/6
f 415/5/6 416/5/6 418/5/6
f 416/4/6 417/4/6 419/4/6
f 418/5/6 416/5/6 419/5/6
f 419/4/6 417/4/6 420/4/6
