# MagicaVoxel @ ephtracy

# material
mtllib fella.mtl
usemtl palette

# normals
vn -1 0 0
vn 1 0 0
vn 0 0 1
vn 0 0 -1
vn 0 -1 0
vn 0 1 0

# texcoords
vt 0.00195313 0.5
vt 0.0214844 0.5
vt 0.0332031 0.5
vt 0.0605469 0.5
vt 0.142578 0.5
vt 0.310547 0.5
vt 0.365234 0.5
vt 0.373047 0.5
vt 0.458984 0.5
vt 0.521484 0.5
vt 0.611328 0.5
vt 0.634766 0.5
vt 0.646484 0.5
vt 0.654297 0.5
vt 0.896484 0.5
vt 0.994141 0.5

# verts
v -4 4 -1.5
v -4 4 -2.5
v -4 5 0.5
v -4 5 -0.5
v -4 5 -1.5
v -4 5 -2.5
v -4 6 0.5
v -4 6 -0.5
v -4 6 -1.5
v -4 7 0.5
v -4 7 -0.5
v -4 8 0.5
v -4 8 -0.5
v -4 9 0.5
v -4 9 -0.5
v -3 3 2.5
v -3 3 -2.5
v -3 4 -1.5
v -3 4 -2.5
v -3 4 -3.5
v -3 5 0.5
v -3 5 -0.5
v -3 5 -1.5
v -3 5 -2.5
v -3 5 -3.5
v -3 6 2.5
v -3 6 1.5
v -3 6 0.5
v -3 6 -0.5
v -3 6 -1.5
v -3 7 2.5
v -3 7 1.5
v -3 7 0.5
v -3 7 -0.5
v -3 7 -2.5
v -3 8 0.5
v -3 8 -0.5
v -3 8 -1.5
v -3 9 3.5
v -3 9 2.5
v -3 9 1.5
v -3 9 0.5
v -3 9 -0.5
v -3 9 -1.5
v -3 10 3.5
v -3 10 2.5
v -3 10 0.5
v -3 10 -0.5
v -3 11 2.5
v -3 11 -0.5
v -3 11 -1.5
v -3 12 2.5
v -3 12 -0.5
v -3 12 -1.5
v -3 12 -2.5
v -2 0 0.5
v -2 0 -0.5
v -2 2 1.5
v -2 2 0.5
v -2 2 -0.5
v -2 2 -1.5
v -2 3 1.5
v -2 3 -1.5
v -2 12 1.5
v -2 12 -0.5
v -2 12 -1.5
v -2 13 1.5
v -2 13 -1.5
v -1 7 3.5
v -1 7 2.5
v -1 8 3.5
v -1 8 2.5
v -1 12 2.5
v -1 12 1.5
v -1 12 -1.5
v -1 12 -2.5
v -1 13 2.5
v -1 13 1.5
v -1 13 -1.5
v -1 14 1.5
v -1 14 0.5
v -1 14 -1.5
v -1 14 -2.5
v -1 15 0.5
v -1 15 -1.5
v 0 13 2.5
v 0 13 1.5
v 0 14 2.5
v 0 14 1.5
v 0 14 0.5
v 0 15 1.5
v 0 15 0.5
v 1 0 0.5
v 1 0 -0.5
v 1 2 0.5
v 1 2 -0.5
v 1 4 -2.5
v 1 4 -3.5
v 1 5 -2.5
v 1 5 -3.5
v 1 9 3.5
v 1 9 2.5
v 1 10 3.5
v 1 10 2.5
v -1 0 0.5
v -1 0 -0.5
v -1 2 0.5
v -1 2 -0.5
v -1 4 -2.5
v -1 4 -3.5
v -1 5 -2.5
v -1 5 -3.5
v -1 9 3.5
v -1 9 2.5
v -1 10 3.5
v -1 10 2.5
v 0 13 -1.5
v 0 13 -2.5
v 0 14 -0.5
v 0 14 -1.5
v 0 14 -2.5
v 0 15 -0.5
v 0 15 -1.5
v 1 7 3.5
v 1 7 2.5
v 1 8 3.5
v 1 8 2.5
v 1 12 2.5
v 1 12 1.5
v 1 12 -1.5
v 1 12 -2.5
v 1 13 1.5
v 1 13 -1.5
v 1 13 -2.5
v 1 14 2.5
v 1 14 1.5
v 1 14 -0.5
v 1 14 -1.5
v 1 15 1.5
v 1 15 -0.5
v 2 0 0.5
v 2 0 -0.5
v 2 2 1.5
v 2 2 0.5
v 2 2 -0.5
v 2 2 -1.5
v 2 3 1.5
v 2 3 -1.5
v 2 12 1.5
v 2 12 -0.5
v 2 12 -1.5
v 2 13 1.5
v 2 13 -1.5
v 3 3 2.5
v 3 3 1.5
v 3 3 -2.5
v 3 4 0.5
v 3 4 -1.5
v 3 4 -2.5
v 3 4 -3.5
v 3 5 0.5
v 3 5 -0.5
v 3 5 -1.5
v 3 5 -2.5
v 3 5 -3.5
v 3 6 2.5
v 3 6 1.5
v 3 6 0.5
v 3 6 -0.5
v 3 6 -1.5
v 3 7 2.5
v 3 7 1.5
v 3 7 0.5
v 3 7 -0.5
v 3 7 -2.5
v 3 8 0.5
v 3 8 -0.5
v 3 8 -1.5
v 3 9 3.5
v 3 9 2.5
v 3 9 1.5
v 3 9 0.5
v 3 9 -0.5
v 3 9 -1.5
v 3 10 3.5
v 3 10 2.5
v 3 10 0.5
v 3 10 -0.5
v 3 11 2.5
v 3 11 -0.5
v 3 11 -1.5
v 3 12 2.5
v 3 12 -0.5
v 3 12 -1.5
v 3 12 -2.5
v 4 4 -1.5
v 4 4 -2.5
v 4 5 0.5
v 4 5 -0.5
v 4 5 -1.5
v 4 5 -2.5
v 4 6 0.5
v 4 6 -0.5
v 4 6 -1.5
v 4 7 0.5
v 4 7 -0.5
v 4 8 0.5
v 4 8 -0.5
v 4 9 0.5
v 4 9 -0.5
v -3 9 3.5
v -3 10 3.5
v -1 7 3.5
v -1 8 3.5
v -1 9 3.5
v -1 10 3.5
v 1 7 3.5
v 1 8 3.5
v 1 9 3.5
v 1 10 3.5
v 3 9 3.5
v 3 10 3.5
v -3 3 2.5
v -3 6 2.5
v -3 7 2.5
v -3 9 2.5
v -3 10 2.5
v -3 11 2.5
v -3 12 2.5
v -2 8 2.5
v -2 9 2.5
v -2 11 2.5
v -2 12 2.5
v -1 5 2.5
v -1 6 2.5
v -1 7 2.5
v -1 8 2.5
v -1 9 2.5
v -1 10 2.5
v -1 12 2.5
v -1 13 2.5
v 0 3 2.5
v 0 4 2.5
v 0 13 2.5
v 0 14 2.5
v 1 3 2.5
v 1 4 2.5
v 1 5 2.5
v 1 6 2.5
v 1 7 2.5
v 1 8 2.5
v 1 9 2.5
v 1 10 2.5
v 1 11 2.5
v 1 12 2.5
v 1 14 2.5
v 2 5 2.5
v 2 6 2.5
v 2 8 2.5
v 2 9 2.5
v 2 11 2.5
v 2 12 2.5
v 3 3 2.5
v 3 6 2.5
v 3 7 2.5
v 3 9 2.5
v 3 10 2.5
v 3 11 2.5
v 3 12 2.5
v -2 2 1.5
v -2 3 1.5
v -2 12 1.5
v -2 13 1.5
v -1 12 1.5
v -1 13 1.5
v -1 14 1.5
v 0 3 1.5
v 0 13 1.5
v 0 14 1.5
v 0 15 1.5
v 1 3 1.5
v 1 12 1.5
v 1 13 1.5
v 1 14 1.5
v 1 15 1.5
v 2 2 1.5
v 2 3 1.5
v 2 12 1.5
v 2 13 1.5
v -4 5 0.5
v -4 6 0.5
v -4 7 0.5
v -4 8 0.5
v -4 9 0.5
v -3 5 0.5
v -3 6 0.5
v -3 7 0.5
v -3 8 0.5
v -3 9 0.5
v -2 0 0.5
v -2 2 0.5
v -1 0 0.5
v -1 2 0.5
v -1 14 0.5
v -1 15 0.5
v 0 14 0.5
v 0 15 0.5
v 1 0 0.5
v 1 2 0.5
v 2 0 0.5
v 2 2 0.5
v 3 5 0.5
v 3 6 0.5
v 3 7 0.5
v 3 8 0.5
v 3 9 0.5
v 4 5 0.5
v 4 6 0.5
v 4 7 0.5
v 4 8 0.5
v 4 9 0.5
v -4 4 -1.5
v -4 5 -1.5
v -3 4 -1.5
v -3 5 -1.5
v 3 4 -1.5
v 3 5 -1.5
v 4 4 -1.5
v 4 5 -1.5
v -4 7 -0.5
v -4 8 -0.5
v -4 9 -0.5
v -3 7 -0.5
v -3 8 -0.5
v -3 9 -0.5
v -2 0 -0.5
v -2 2 -0.5
v -1 0 -0.5
v -1 2 -0.5
v 0 14 -0.5
v 0 15 -0.5
v 1 0 -0.5
v 1 2 -0.5
v 1 14 -0.5
v 1 15 -0.5
v 2 0 -0.5
v 2 2 -0.5
v 3 7 -0.5
v 3 8 -0.5
v 3 9 -0.5
v 4 7 -0.5
v 4 8 -0.5
v 4 9 -0.5
v -4 5 -1.5
v -4 6 -1.5
v -3 5 -1.5
v -3 6 -1.5
v -2 2 -1.5
v -2 3 -1.5
v -2 12 -1.5
v -2 13 -1.5
v -1 12 -1.5
v -1 13 -1.5
v -1 14 -1.5
v -1 15 -1.5
v 0 13 -1.5
v 0 14 -1.5
v 0 15 -1.5
v 1 3 -1.5
v 1 12 -1.5
v 1 13 -1.5
v 1 14 -1.5
v 2 2 -1.5
v 2 3 -1.5
v 2 12 -1.5
v 2 13 -1.5
v 3 5 -1.5
v 3 6 -1.5
v 4 5 -1.5
v 4 6 -1.5
v -4 4 -2.5
v -4 5 -2.5
v -3 3 -2.5
v -3 4 -2.5
v -3 5 -2.5
v -3 7 -2.5
v -3 12 -2.5
v -2 6 -2.5
v -2 7 -2.5
v -2 11 -2.5
v -2 12 -2.5
v -1 4 -2.5
v -1 5 -2.5
v -1 6 -2.5
v -1 10 -2.5
v -1 11 -2.5
v -1 12 -2.5
v -1 14 -2.5
v 0 4 -2.5
v 0 5 -2.5
v 0 13 -2.5
v 0 14 -2.5
v 1 3 -2.5
v 1 4 -2.5
v 1 5 -2.5
v 1 10 -2.5
v 1 11 -2.5
v 1 12 -2.5
v 1 13 -2.5
v 2 11 -2.5
v 2 12 -2.5
v 3 3 -2.5
v 3 4 -2.5
v 3 5 -2.5
v 3 7 -2.5
v 3 12 -2.5
v 4 4 -2.5
v 4 5 -2.5
v -3 4 -3.5
v -3 5 -3.5
v -1 4 -3.5
v -1 5 -3.5
v 1 4 -3.5
v 1 5 -3.5
v 3 4 -3.5
v 3 5 -3.5
v -2 0 0.5
v -1 0 0.5
v 1 0 0.5
v 2 0 0.5
v -2 0 -0.5
v -1 0 -0.5
v 1 0 -0.5
v 2 0 -0.5
v -2 2 1.5
v 2 2 1.5
v -2 2 0.5
v -1 2 0.5
v 0 2 0.5
v 1 2 0.5
v 2 2 0.5
v -2 2 -0.5
v -1 2 -0.5
v 0 2 -0.5
v 1 2 -0.5
v 2 2 -0.5
v -2 2 -1.5
v 2 2 -1.5
v -3 3 2.5
v 0 3 2.5
v 1 3 2.5
v 3 3 2.5
v -2 3 1.5
v 0 3 1.5
v 1 3 1.5
v 2 3 1.5
v 3 3 1.5
v -2 3 -1.5
v 1 3 -1.5
v 2 3 -1.5
v -3 3 -2.5
v 1 3 -2.5
v 3 3 -2.5
v -4 4 -1.5
v -3 4 -1.5
v 3 4 -1.5
v 4 4 -1.5
v -4 4 -2.5
v -3 4 -2.5
v -1 4 -2.5
v 1 4 -2.5
v 3 4 -2.5
v 4 4 -2.5
v -3 4 -3.5
v -1 4 -3.5
v 1 4 -3.5
v 3 4 -3.5
v -4 5 0.5
v -3 5 0.5
v 3 5 0.5
v 4 5 0.5
v -4 5 -0.5
v -3 5 -0.5
v 3 5 -0.5
v 4 5 -0.5
v -4 5 -1.5
v -3 5 -1.5
v 3 5 -1.5
v 4 5 -1.5
v -1 7 3.5
v 1 7 3.5
v -1 7 2.5
v 1 7 2.5
v -4 7 0.5
v -3 7 0.5
v 3 7 0.5
v 4 7 0.5
v -4 7 -0.5
v -3 7 -0.5
v 3 7 -0.5
v 4 7 -0.5
v -3 9 3.5
v -1 9 3.5
v 1 9 3.5
v 3 9 3.5
v -3 9 2.5
v -2 9 2.5
v -1 9 2.5
v 1 9 2.5
v 2 9 2.5
v 3 9 2.5
v -4 5 -1.5
v -3 5 -1.5
v 3 5 -1.5
v 4 5 -1.5
v -4 5 -2.5
v -3 5 -2.5
v -1 5 -2.5
v 1 5 -2.5
v 3 5 -2.5
v 4 5 -2.5
v -3 5 -3.5
v -1 5 -3.5
v 1 5 -3.5
v 3 5 -3.5
v -4 6 0.5
v -3 6 0.5
v 3 6 0.5
v 4 6 0.5
v -4 6 -0.5
v -3 6 -0.5
v 3 6 -0.5
v 4 6 -0.5
v -4 6 -1.5
v -3 6 -1.5
v 3 6 -1.5
v 4 6 -1.5
v -1 8 3.5
v 1 8 3.5
v -1 8 2.5
v 1 8 2.5
v -4 9 0.5
v -3 9 0.5
v 3 9 0.5
v 4 9 0.5
v -4 9 -0.5
v -3 9 -0.5
v 3 9 -0.5
v 4 9 -0.5
v -3 10 3.5
v -1 10 3.5
v 1 10 3.5
v 3 10 3.5
v -3 10 2.5
v -1 10 2.5
v 1 10 2.5
v 3 10 2.5
v -3 12 2.5
v -2 12 2.5
v -1 12 2.5
v 1 12 2.5
v 2 12 2.5
v 3 12 2.5
v -2 12 1.5
v -1 12 1.5
v 1 12 1.5
v 2 12 1.5
v -3 12 -0.5
v -2 12 -0.5
v 2 12 -0.5
v 3 12 -0.5
v -3 12 -1.5
v -2 12 -1.5
v -1 12 -1.5
v 1 12 -1.5
v 2 12 -1.5
v 3 12 -1.5
v -3 12 -2.5
v -2 12 -2.5
v -1 12 -2.5
v 1 12 -2.5
v 2 12 -2.5
v 3 12 -2.5
v -1 13 2.5
v 0 13 2.5
v -2 13 1.5
v -1 13 1.5
v 0 13 1.5
v 1 13 1.5
v 2 13 1.5
v -2 13 -1.5
v -1 13 -1.5
v 0 13 -1.5
v 1 13 -1.5
v 2 13 -1.5
v 0 13 -2.5
v 1 13 -2.5
v 0 14 2.5
v 1 14 2.5
v -1 14 1.5
v 0 14 1.5
v 1 14 1.5
v -1 14 0.5
v 0 14 0.5
v 0 14 -0.5
v 1 14 -0.5
v -1 14 -1.5
v 0 14 -1.5
v 1 14 -1.5
v -1 14 -2.5
v 0 14 -2.5
v 0 15 1.5
v 1 15 1.5
v -1 15 0.5
v 0 15 0.5
v 0 15 -0.5
v 1 15 -0.5
v -1 15 -1.5
v 0 15 -1.5

# faces
f 5/4/1 2/4/1 1/4/1
f 6/4/1 2/4/1 5/4/1
f 7/9/1 4/9/1 3/9/1
f 8/4/1 5/4/1 4/4/1
f 8/9/1 4/9/1 7/9/1
f 9/4/1 5/4/1 8/4/1
f 12/2/1 11/2/1 10/2/1
f 13/2/1 11/2/1 12/2/1
f 14/4/1 13/4/1 12/4/1
f 15/4/1 13/4/1 14/4/1
f 18/15/1 17/15/1 16/15/1
f 19/15/1 17/15/1 18/15/1
f 21/15/1 18/15/1 16/15/1
f 22/15/1 18/15/1 21/15/1
f 23/15/1 18/15/1 22/15/1
f 24/4/1 20/4/1 19/4/1
f 25/4/1 20/4/1 24/4/1
f 26/15/1 21/15/1 16/15/1
f 27/15/1 21/15/1 26/15/1
f 28/15/1 21/15/1 27/15/1
f 30/15/1 24/15/1 23/15/1
f 31/7/1 27/7/1 26/7/1
f 32/15/1 29/15/1 28/15/1
f 32/7/1 27/7/1 31/7/1
f 32/15/1 30/15/1 29/15/1
f 32/15/1 28/15/1 27/15/1
f 33/15/1 30/15/1 32/15/1
f 34/15/1 30/15/1 33/15/1
f 35/15/1 24/15/1 30/15/1
f 35/15/1 30/15/1 34/15/1
f 36/7/1 33/7/1 32/7/1
f 37/4/1 35/4/1 34/4/1
f 38/4/1 35/4/1 37/4/1
f 40/4/1 32/4/1 31/4/1
f 41/7/1 36/7/1 32/7/1
f 41/4/1 32/4/1 40/4/1
f 42/7/1 36/7/1 41/7/1
f 43/7/1 38/7/1 37/7/1
f 44/4/1 35/4/1 38/4/1
f 44/7/1 38/7/1 43/7/1
f 45/7/1 40/7/1 39/7/1
f 46/4/1 42/4/1 41/4/1
f 46/7/1 40/7/1 45/7/1
f 46/4/1 41/4/1 40/4/1
f 47/7/1 43/7/1 42/7/1
f 47/4/1 42/4/1 46/4/1
f 48/4/1 44/4/1 43/4/1
f 48/7/1 43/7/1 47/7/1
f 49/2/1 47/2/1 46/2/1
f 49/2/1 48/2/1 47/2/1
f 50/4/1 44/4/1 48/4/1
f 50/2/1 48/2/1 49/2/1
f 51/4/1 35/4/1 44/4/1
f 51/4/1 44/4/1 50/4/1
f 52/4/1 50/4/1 49/4/1
f 53/2/1 51/2/1 50/2/1
f 53/4/1 50/4/1 52/4/1
f 54/4/1 35/4/1 51/4/1
f 54/2/1 51/2/1 53/2/1
f 55/4/1 35/4/1 54/4/1
f 59/8/1 57/8/1 56/8/1
f 60/8/1 57/8/1 59/8/1
f 62/8/1 59/8/1 58/8/1
f 62/8/1 61/8/1 60/8/1
f 62/8/1 60/8/1 59/8/1
f 63/8/1 61/8/1 62/8/1
f 67/4/1 65/4/1 64/4/1
f 67/4/1 66/4/1 65/4/1
f 68/4/1 66/4/1 67/4/1
f 71/4/1 70/4/1 69/4/1
f 72/4/1 70/4/1 71/4/1
f 77/7/1 74/7/1 73/7/1
f 78/7/1 74/7/1 77/7/1
f 79/7/1 76/7/1 75/7/1
f 80/7/1 79/7/1 78/7/1
f 81/7/1 79/7/1 80/7/1
f 82/7/1 76/7/1 79/7/1
f 82/7/1 79/7/1 81/7/1
f 83/7/1 76/7/1 82/7/1
f 84/7/1 82/7/1 81/7/1
f 85/7/1 82/7/1 84/7/1
f 88/7/1 87/7/1 86/7/1
f 89/7/1 87/7/1 88/7/1
f 91/7/1 90/7/1 89/7/1
f 92/7/1 90/7/1 91/7/1
f 95/8/1 94/8/1 93/8/1
f 96/8/1 94/8/1 95/8/1
f 99/4/1 98/4/1 97/4/1
f 100/4/1 98/4/1 99/4/1
f 103/7/1 102/7/1 101/7/1
f 104/7/1 102/7/1 103/7/1
f 105/8/2 106/8/2 107/8/2
f 107/8/2 106/8/2 108/8/2
f 109/4/2 110/4/2 111/4/2
f 111/4/2 110/4/2 112/4/2
f 113/7/2 114/7/2 115/7/2
f 115/7/2 114/7/2 116/7/2
f 117/7/2 118/7/2 120/7/2
f 120/7/2 118/7/2 121/7/2
f 119/7/2 120/7/2 122/7/2
f 122/7/2 120/7/2 123/7/2
f 124/4/2 125/4/2 126/4/2
f 126/4/2 125/4/2 127/4/2
f 128/7/2 129/7/2 132/7/2
f 130/7/2 131/7/2 133/7/2
f 133/7/2 131/7/2 134/7/2
f 128/7/2 132/7/2 135/7/2
f 132/7/2 133/7/2 135/7/2
f 135/7/2 133/7/2 136/7/2
f 136/7/2 133/7/2 137/7/2
f 137/7/2 133/7/2 138/7/2
f 136/7/2 137/7/2 139/7/2
f 139/7/2 137/7/2 140/7/2
f 141/8/2 142/8/2 144/8/2
f 144/8/2 142/8/2 145/8/2
f 143/8/2 144/8/2 147/8/2
f 145/8/2 146/8/2 147/8/2
f 144/8/2 145/8/2 147/8/2
f 147/8/2 146/8/2 148/8/2
f 149/3/2 150/3/2 152/3/2
f 150/3/2 151/3/2 152/3/2
f 152/3/2 151/3/2 153/3/2
f 155/9/2 156/9/2 157/9/2
f 157/9/2 156/9/2 158/9/2
f 158/9/2 156/9/2 159/9/2
f 155/9/2 157/9/2 161/9/2
f 157/14/2 158/14/2 161/14/2
f 161/14/2 158/14/2 162/14/2
f 162/14/2 158/14/2 163/14/2
f 159/4/2 160/4/2 164/4/2
f 164/4/2 160/4/2 165/4/2
f 154/15/2 155/15/2 166/15/2
f 155/9/2 161/9/2 167/9/2
f 166/15/2 155/15/2 167/15/2
f 167/9/2 161/9/2 168/9/2
f 163/9/2 164/9/2 170/9/2
f 166/7/2 167/7/2 171/7/2
f 168/9/2 169/9/2 172/9/2
f 171/7/2 167/7/2 172/7/2
f 169/9/2 170/9/2 172/9/2
f 167/9/2 168/9/2 172/9/2
f 172/9/2 170/9/2 173/9/2
f 173/9/2 170/9/2 174/9/2
f 170/9/2 164/9/2 175/9/2
f 174/9/2 170/9/2 175/9/2
f 172/7/2 173/7/2 176/7/2
f 174/3/2 175/3/2 177/3/2
f 177/3/2 175/3/2 178/3/2
f 171/3/2 172/3/2 180/3/2
f 172/7/2 176/7/2 181/7/2
f 180/3/2 172/3/2 181/3/2
f 181/7/2 176/7/2 182/7/2
f 177/7/2 178/7/2 183/7/2
f 178/3/2 175/3/2 184/3/2
f 183/7/2 178/7/2 184/7/2
f 179/7/2 180/7/2 185/7/2
f 181/3/2 182/3/2 186/3/2
f 185/7/2 180/7/2 186/7/2
f 180/3/2 181/3/2 186/3/2
f 182/7/2 183/7/2 187/7/2
f 186/3/2 182/3/2 187/3/2
f 183/3/2 184/3/2 188/3/2
f 187/7/2 183/7/2 188/7/2
f 186/2/2 187/2/2 189/2/2
f 187/2/2 188/2/2 189/2/2
f 188/3/2 184/3/2 190/3/2
f 189/2/2 188/2/2 190/2/2
f 184/3/2 175/3/2 191/3/2
f 190/3/2 184/3/2 191/3/2
f 189/3/2 190/3/2 192/3/2
f 190/2/2 191/2/2 193/2/2
f 192/3/2 190/3/2 193/3/2
f 191/3/2 175/3/2 194/3/2
f 193/2/2 191/2/2 194/2/2
f 194/3/2 175/3/2 195/3/2
f 196/4/2 197/4/2 200/4/2
f 200/4/2 197/4/2 201/4/2
f 198/9/2 199/9/2 202/9/2
f 199/4/2 200/4/2 203/4/2
f 202/9/2 199/9/2 203/9/2
f 203/4/2 200/4/2 204/4/2
f 205/2/2 206/2/2 207/2/2
f 207/2/2 206/2/2 208/2/2
f 207/4/2 208/4/2 209/4/2
f 209/4/2 208/4/2 210/4/2
f 215/7/3 212/7/3 211/7/3
f 216/7/3 212/7/3 215/7/3
f 217/4/3 214/4/3 213/4/3
f 218/4/3 214/4/3 217/4/3
f 221/7/3 220/7/3 219/7/3
f 222/7/3 220/7/3 221/7/3
f 230/4/3 226/4/3 225/4/3
f 231/4/3 226/4/3 230/4/3
f 232/4/3 229/4/3 228/4/3
f 232/2/3 228/2/3 227/2/3
f 233/4/3 229/4/3 232/4/3
f 234/15/3 224/15/3 223/15/3
f 235/7/3 225/7/3 224/7/3
f 235/15/3 224/15/3 234/15/3
f 236/4/3 230/4/3 225/4/3
f 236/7/3 225/7/3 235/7/3
f 237/16/3 231/16/3 230/16/3
f 237/4/3 230/4/3 236/4/3
f 238/16/3 231/16/3 237/16/3
f 239/2/3 232/2/3 227/2/3
f 240/3/3 233/3/3 232/3/3
f 242/15/3 234/15/3 223/15/3
f 243/15/3 234/15/3 242/15/3
f 244/7/3 241/7/3 240/7/3
f 246/14/3 243/14/3 242/14/3
f 247/15/3 234/15/3 243/15/3
f 247/14/3 243/14/3 246/14/3
f 248/7/3 235/7/3 234/7/3
f 248/15/3 234/15/3 247/15/3
f 249/16/3 236/16/3 235/16/3
f 249/7/3 235/7/3 248/7/3
f 250/16/3 236/16/3 249/16/3
f 251/3/3 238/3/3 237/3/3
f 251/3/3 239/3/3 238/3/3
f 252/3/3 239/3/3 251/3/3
f 253/2/3 232/2/3 239/2/3
f 253/3/3 239/3/3 252/3/3
f 254/3/3 240/3/3 232/3/3
f 254/2/3 232/2/3 253/2/3
f 255/7/3 245/7/3 244/7/3
f 255/3/3 240/3/3 254/3/3
f 255/7/3 244/7/3 240/7/3
f 256/7/3 245/7/3 255/7/3
f 257/15/3 248/15/3 247/15/3
f 257/15/3 247/15/3 246/15/3
f 257/14/3 249/14/3 248/14/3
f 258/7/3 250/7/3 249/7/3
f 258/14/3 249/14/3 257/14/3
f 259/3/3 251/3/3 250/3/3
f 259/16/3 252/16/3 251/16/3
f 260/16/3 252/16/3 259/16/3
f 261/1/3 255/1/3 254/1/3
f 261/2/3 254/2/3 253/2/3
f 262/1/3 255/1/3 261/1/3
f 263/15/3 257/15/3 246/15/3
f 263/15/3 258/15/3 257/15/3
f 264/7/3 250/7/3 258/7/3
f 264/15/3 258/15/3 263/15/3
f 265/3/3 260/3/3 259/3/3
f 265/7/3 250/7/3 264/7/3
f 265/3/3 259/3/3 250/3/3
f 266/3/3 260/3/3 265/3/3
f 267/2/3 261/2/3 253/2/3
f 268/3/3 262/3/3 261/3/3
f 268/2/3 261/2/3 267/2/3
f 269/3/3 262/3/3 268/3/3
f 274/4/3 273/4/3 272/4/3
f 275/4/3 273/4/3 274/4/3
f 277/8/3 271/8/3 270/8/3
f 278/7/3 276/7/3 275/7/3
f 279/7/3 276/7/3 278/7/3
f 281/8/3 277/8/3 270/8/3
f 284/7/3 280/7/3 279/7/3
f 285/7/3 280/7/3 284/7/3
f 286/8/3 281/8/3 270/8/3
f 287/8/3 281/8/3 286/8/3
f 288/3/3 283/3/3 282/3/3
f 289/3/3 283/3/3 288/3/3
f 295/9/3 291/9/3 290/9/3
f 296/9/3 291/9/3 295/9/3
f 297/2/3 293/2/3 292/2/3
f 298/4/3 294/4/3 293/4/3
f 298/2/3 293/2/3 297/2/3
f 299/4/3 294/4/3 298/4/3
f 302/8/3 301/8/3 300/8/3
f 303/8/3 301/8/3 302/8/3
f 306/7/3 305/7/3 304/7/3
f 307/7/3 305/7/3 306/7/3
f 310/8/3 309/8/3 308/8/3
f 311/8/3 309/8/3 310/8/3
f 317/9/3 313/9/3 312/9/3
f 318/9/3 313/9/3 317/9/3
f 319/2/3 315/2/3 314/2/3
f 320/4/3 316/4/3 315/4/3
f 320/2/3 315/2/3 319/2/3
f 321/4/3 316/4/3 320/4/3
f 324/4/3 323/4/3 322/4/3
f 325/4/3 323/4/3 324/4/3
f 328/4/3 327/4/3 326/4/3
f 329/4/3 327/4/3 328/4/3
f 330/2/4 331/2/4 333/2/4
f 331/4/4 332/4/4 334/4/4
f 333/2/4 331/2/4 334/2/4
f 334/4/4 332/4/4 335/4/4
f 336/8/4 337/8/4 338/8/4
f 338/8/4 337/8/4 339/8/4
f 340/7/4 341/7/4 344/7/4
f 344/7/4 341/7/4 345/7/4
f 342/8/4 343/8/4 346/8/4
f 346/8/4 343/8/4 347/8/4
f 348/2/4 349/2/4 351/2/4
f 349/4/4 350/4/4 352/4/4
f 351/2/4 349/2/4 352/2/4
f 352/4/4 350/4/4 353/4/4
f 354/4/4 355/4/4 356/4/4
f 356/4/4 355/4/4 357/4/4
f 360/4/4 361/4/4 362/4/4
f 362/4/4 361/4/4 363/4/4
f 364/7/4 365/7/4 367/7/4
f 367/7/4 365/7/4 368/7/4
f 358/8/4 359/8/4 369/8/4
f 366/7/4 367/7/4 371/7/4
f 371/7/4 367/7/4 372/7/4
f 358/8/4 369/8/4 373/8/4
f 373/8/4 369/8/4 374/8/4
f 370/3/4 371/3/4 375/3/4
f 375/3/4 371/3/4 376/3/4
f 377/4/4 378/4/4 379/4/4
f 379/4/4 378/4/4 380/4/4
f 381/4/4 382/4/4 384/4/4
f 384/4/4 382/4/4 385/4/4
f 385/15/4 386/15/4 388/15/4
f 386/4/4 387/4/4 389/4/4
f 388/15/4 386/15/4 389/15/4
f 389/4/4 387/4/4 390/4/4
f 390/4/4 387/4/4 391/4/4
f 383/15/4 384/15/4 392/15/4
f 385/15/4 388/15/4 393/15/4
f 388/9/4 389/9/4 394/9/4
f 393/15/4 388/15/4 394/15/4
f 389/3/4 390/3/4 395/3/4
f 390/2/4 391/2/4 396/2/4
f 395/3/4 390/3/4 396/3/4
f 396/2/4 391/2/4 397/2/4
f 383/15/4 392/15/4 399/15/4
f 392/15/4 393/15/4 399/15/4
f 393/9/4 394/9/4 400/9/4
f 399/15/4 393/15/4 400/15/4
f 397/7/4 398/7/4 401/7/4
f 401/7/4 398/7/4 402/7/4
f 383/15/4 399/15/4 403/15/4
f 399/9/4 400/9/4 404/9/4
f 403/15/4 399/15/4 404/15/4
f 400/9/4 394/9/4 405/9/4
f 404/9/4 400/9/4 405/9/4
f 395/7/4 396/7/4 406/7/4
f 389/3/4 395/3/4 406/3/4
f 396/2/4 397/2/4 407/2/4
f 406/7/4 396/7/4 407/7/4
f 397/7/4 401/7/4 408/7/4
f 407/2/4 397/2/4 408/2/4
f 408/7/4 401/7/4 409/7/4
f 406/3/4 407/3/4 410/3/4
f 407/2/4 408/2/4 410/2/4
f 410/2/4 408/2/4 411/2/4
f 403/9/4 404/9/4 412/9/4
f 412/9/4 404/9/4 413/9/4
f 405/9/4 394/9/4 414/9/4
f 389/3/4 406/3/4 415/3/4
f 394/9/4 389/9/4 415/9/4
f 414/9/4 394/9/4 415/9/4
f 406/3/4 410/3/4 415/3/4
f 410/3/4 411/3/4 415/3/4
f 415/3/4 411/3/4 416/3/4
f 413/4/4 414/4/4 417/4/4
f 417/4/4 414/4/4 418/4/4
f 419/4/4 420/4/4 421/4/4
f 421/4/4 420/4/4 422/4/4
f 423/4/4 424/4/4 425/4/4
f 425/4/4 424/4/4 426/4/4
f 431/8/5 428/8/5 427/8/5
f 432/8/5 428/8/5 431/8/5
f 433/8/5 430/8/5 429/8/5
f 434/8/5 430/8/5 433/8/5
f 437/8/5 436/8/5 435/8/5
f 438/8/5 436/8/5 437/8/5
f 439/8/5 436/8/5 438/8/5
f 440/8/5 436/8/5 439/8/5
f 441/8/5 436/8/5 440/8/5
f 443/5/5 439/5/5 438/5/5
f 444/8/5 440/8/5 439/8/5
f 444/5/5 439/5/5 443/5/5
f 445/8/5 440/8/5 444/8/5
f 447/8/5 443/8/5 442/8/5
f 447/8/5 446/8/5 445/8/5
f 447/8/5 445/8/5 444/8/5
f 447/8/5 444/8/5 443/8/5
f 448/8/5 446/8/5 447/8/5
f 453/15/5 450/15/5 449/15/5
f 454/14/5 451/14/5 450/14/5
f 454/15/5 450/15/5 453/15/5
f 455/15/5 452/15/5 451/15/5
f 455/14/5 451/14/5 454/14/5
f 456/15/5 452/15/5 455/15/5
f 457/15/5 452/15/5 456/15/5
f 458/15/5 453/15/5 449/15/5
f 460/9/5 457/9/5 456/9/5
f 461/15/5 459/15/5 458/15/5
f 461/15/5 458/15/5 449/15/5
f 462/9/5 460/9/5 459/9/5
f 462/15/5 459/15/5 461/15/5
f 463/9/5 457/9/5 460/9/5
f 463/9/5 460/9/5 462/9/5
f 468/4/5 465/4/5 464/4/5
f 469/4/5 465/4/5 468/4/5
f 472/4/5 467/4/5 466/4/5
f 473/4/5 467/4/5 472/4/5
f 474/4/5 470/4/5 469/4/5
f 475/4/5 470/4/5 474/4/5
f 476/4/5 472/4/5 471/4/5
f 477/4/5 472/4/5 476/4/5
f 482/9/5 479/9/5 478/9/5
f 483/9/5 479/9/5 482/9/5
f 484/9/5 481/9/5 480/9/5
f 485/9/5 481/9/5 484/9/5
f 486/4/5 483/4/5 482/4/5
f 487/4/5 483/4/5 486/4/5
f 488/4/5 485/4/5 484/4/5
f 489/4/5 485/4/5 488/4/5
f 492/4/5 491/4/5 490/4/5
f 493/4/5 491/4/5 492/4/5
f 498/2/5 495/2/5 494/2/5
f 499/2/5 495/2/5 498/2/5
f 500/2/5 497/2/5 496/2/5
f 501/2/5 497/2/5 500/2/5
f 506/7/5 503/7/5 502/7/5
f 507/7/5 503/7/5 506/7/5
f 508/7/5 503/7/5 507/7/5
f 509/7/5 505/7/5 504/7/5
f 510/7/5 505/7/5 509/7/5
f 511/7/5 505/7/5 510/7/5
f 512/4/6 513/4/6 516/4/6
f 516/4/6 513/4/6 517/4/6
f 514/4/6 515/4/6 520/4/6
f 520/4/6 515/4/6 521/4/6
f 517/4/6 518/4/6 522/4/6
f 522/4/6 518/4/6 523/4/6
f 519/4/6 520/4/6 524/4/6
f 524/4/6 520/4/6 525/4/6
f 526/9/6 527/9/6 530/9/6
f 530/9/6 527/9/6 531/9/6
f 528/9/6 529/9/6 532/9/6
f 532/9/6 529/9/6 533/9/6
f 530/4/6 531/4/6 534/4/6
f 534/4/6 531/4/6 535/4/6
f 532/4/6 533/4/6 536/4/6
f 536/4/6 533/4/6 537/4/6
f 538/4/6 539/4/6 540/4/6
f 540/4/6 539/4/6 541/4/6
f 542/4/6 543/4/6 546/4/6
f 546/4/6 543/4/6 547/4/6
f 544/4/6 545/4/6 548/4/6
f 548/4/6 545/4/6 549/4/6
f 550/7/6 551/7/6 554/7/6
f 554/7/6 551/7/6 555/7/6
f 552/7/6 553/7/6 556/7/6
f 556/7/6 553/7/6 557/7/6
f 558/4/6 559/4/6 564/4/6
f 559/3/6 560/3/6 564/3/6
f 564/3/6 560/3/6 565/3/6
f 561/1/6 562/1/6 566/1/6
f 562/3/6 563/3/6 567/3/6
f 566/1/6 562/1/6 567/1/6
f 558/4/6 564/4/6 568/4/6
f 568/4/6 564/4/6 569/4/6
f 567/3/6 563/3/6 570/3/6
f 570/3/6 563/3/6 571/3/6
f 568/2/6 569/2/6 572/2/6
f 572/2/6 569/2/6 573/2/6
f 570/2/6 571/2/6 576/2/6
f 576/2/6 571/2/6 577/2/6
f 572/4/6 573/4/6 578/4/6
f 573/2/6 574/2/6 579/2/6
f 578/4/6 573/4/6 579/4/6
f 579/2/6 574/2/6 580/2/6
f 575/2/6 576/2/6 581/2/6
f 576/3/6 577/3/6 582/3/6
f 581/2/6 576/2/6 582/2/6
f 582/3/6 577/3/6 583/3/6
f 584/7/6 585/7/6 587/7/6
f 587/7/6 585/7/6 588/7/6
f 586/4/6 587/4/6 591/4/6
f 591/4/6 587/4/6 592/4/6
f 589/3/6 590/3/6 594/3/6
f 594/3/6 590/3/6 595/3/6
f 593/7/6 594/7/6 596/7/6
f 596/7/6 594/7/6 597/7/6
f 598/7/6 599/7/6 601/7/6
f 601/7/6 599/7/6 602/7/6
f 600/7/6 601/7/6 603/7/6
f 603/7/6 601/7/6 604/7/6
f 605/7/6 606/7/6 608/7/6
f 608/7/6 606/7/6 609/7/6
f 607/7/6 608/7/6 610/7/6
f 610/7/6 608/7/6 611/7/6
f 612/7/6 613/7/6 615/7/6
f 615/7/6 613/7/6 616/7/6
f 614/7/6 615/7/6 616/7/6
f 616/7/6 613/7/6 617/7/6
f 614/7/6 616/7/6 618/7/6
f 618/7/6 616/7/6 619/7/6
