# 3ds Max Wavefront OBJ Exporter v0.97b - (c)2007 guruware
# File Created: 31.01.2016 12:56:03

mtllib title_txt.mtl

#
# object Text001
#

v  -27.0390 13.0359 10.7524
v  -30.3340 8.2843 10.7524
v  -30.3340 8.2843 0.0000
v  -27.0390 13.0359 0.0000
v  -30.6329 13.0359 10.7524
v  -30.6329 13.0359 0.0000
v  -34.2220 7.6829 10.7524
v  -34.2220 7.6829 0.0000
v  -34.2220 13.0359 10.7524
v  -34.2220 13.0359 0.0000
v  -37.9909 13.0359 10.7524
v  -37.9909 13.0359 0.0000
v  -37.9909 -0.0000 10.7524
v  -37.9909 0.0000 -0.0000
v  -34.2220 -0.0000 10.7524
v  -34.2220 0.0000 -0.0000
v  -34.2220 3.0082 10.7524
v  -34.2220 3.0082 0.0000
v  -32.8665 4.9002 10.7524
v  -32.8665 4.9002 0.0000
v  -30.6177 -0.0000 10.7524
v  -30.6177 0.0000 -0.0000
v  -26.2408 -0.0000 10.7524
v  -26.2408 0.0000 -0.0000
v  -5.6450 8.2472 10.7524
v  -5.6450 13.0359 10.7524
v  -5.6450 13.0359 0.0000
v  -5.6450 8.2472 0.0000
v  -8.7266 8.2472 10.7524
v  -8.7266 8.2472 0.0000
v  -8.7266 13.0359 10.7524
v  -8.7266 13.0359 0.0000
v  -12.7172 13.0359 10.7524
v  -12.7172 13.0359 0.0000
v  -12.7172 -0.0000 10.7524
v  -12.7172 0.0000 -0.0000
v  -8.7266 -0.0000 10.7524
v  -8.7266 0.0000 -0.0000
v  -8.7266 5.0769 10.7524
v  -8.7266 5.0769 0.0000
v  -5.6450 5.0769 10.7524
v  -5.6450 5.0769 0.0000
v  -5.6450 -0.0000 10.7524
v  -5.6450 0.0000 -0.0000
v  -1.6544 -0.0000 10.7524
v  -1.6544 0.0000 -0.0000
v  -1.6544 13.0359 10.7524
v  -1.6544 13.0359 0.0000
v  8.0338 5.4015 10.7524
v  8.0338 13.0359 10.7524
v  8.0338 13.0359 0.0000
v  8.0338 5.4015 0.0000
v  8.0320 5.0919 10.7524
v  8.0320 5.0919 0.0000
v  8.0264 4.8127 10.7524
v  8.0264 4.8127 0.0000
v  8.0171 4.5639 10.7524
v  8.0171 4.5639 0.0000
v  8.0041 4.3455 10.7524
v  8.0041 4.3455 0.0000
v  7.9874 4.1575 10.7524
v  7.9874 4.1575 0.0000
v  7.9670 3.9999 10.7524
v  7.9670 3.9999 0.0000
v  7.9429 3.8728 10.7524
v  7.9429 3.8728 0.0000
v  7.9093 3.7625 10.7524
v  7.9093 3.7625 0.0000
v  7.8605 3.6556 10.7524
v  7.8605 3.6556 0.0000
v  7.7964 3.5519 10.7524
v  7.7964 3.5519 0.0000
v  7.7171 3.4516 10.7524
v  7.7171 3.4516 0.0000
v  7.6225 3.3546 10.7524
v  7.6225 3.3546 0.0000
v  7.5128 3.2609 10.7524
v  7.5128 3.2609 0.0000
v  7.3878 3.1705 10.7524
v  7.3878 3.1705 0.0000
v  7.2498 3.0881 10.7524
v  7.2498 3.0881 0.0000
v  7.1010 3.0184 10.7524
v  7.1010 3.0184 0.0000
v  6.9415 2.9613 10.7524
v  6.9415 2.9613 0.0000
v  6.7713 2.9170 10.7524
v  6.7713 2.9170 0.0000
v  6.5903 2.8853 10.7524
v  6.5903 2.8853 0.0000
v  6.3986 2.8663 10.7524
v  6.3986 2.8663 0.0000
v  6.1961 2.8599 10.7524
v  6.1961 2.8599 0.0000
v  5.9570 2.8687 10.7524
v  5.9570 2.8687 0.0000
v  5.7372 2.8950 10.7524
v  5.7372 2.8950 0.0000
v  5.5367 2.9389 10.7524
v  5.5367 2.9389 0.0000
v  5.3555 3.0003 10.7524
v  5.3555 3.0003 0.0000
v  5.1937 3.0792 10.7524
v  5.1937 3.0792 0.0000
v  5.0513 3.1758 10.7524
v  5.0513 3.1758 0.0000
v  4.9281 3.2898 10.7524
v  4.9281 3.2898 0.0000
v  4.8228 3.4230 10.7524
v  4.8228 3.4230 0.0000
v  4.7336 3.5768 10.7524
v  4.7336 3.5768 0.0000
v  4.6607 3.7514 10.7524
v  4.6607 3.7514 0.0000
v  4.6039 3.9466 10.7524
v  4.6039 3.9466 0.0000
v  4.5634 4.1625 10.7524
v  4.5634 4.1625 0.0000
v  4.5391 4.3991 10.7524
v  4.5391 4.3991 0.0000
v  4.5310 4.6564 10.7524
v  4.5310 4.6564 0.0000
v  4.5310 13.0359 10.7524
v  4.5310 13.0359 0.0000
v  0.4739 13.0359 10.7524
v  0.4739 13.0359 0.0000
v  0.4739 4.1932 10.7524
v  0.4739 4.1932 0.0000
v  0.5044 3.5539 10.7524
v  0.5044 3.5539 0.0000
v  0.5959 2.9677 10.7524
v  0.5959 2.9677 0.0000
v  0.7485 2.4345 10.7524
v  0.7485 2.4345 -0.0000
v  0.9620 1.9542 10.7524
v  0.9620 1.9542 -0.0000
v  1.2366 1.5270 10.7524
v  1.2366 1.5270 -0.0000
v  1.5722 1.1529 10.7524
v  1.5722 1.1529 -0.0000
v  1.9688 0.8317 10.7524
v  1.9688 0.8317 -0.0000
v  2.4157 0.5581 10.7524
v  2.4157 0.5581 -0.0000
v  2.9022 0.3266 10.7524
v  2.9022 0.3266 -0.0000
v  3.4283 0.1372 10.7524
v  3.4283 0.1372 -0.0000
v  3.9939 -0.0101 10.7524
v  3.9939 -0.0101 -0.0000
v  4.5991 -0.1153 10.7524
v  4.5991 -0.1153 -0.0000
v  5.2440 -0.1785 10.7524
v  5.2440 -0.1785 -0.0000
v  5.9284 -0.1995 10.7524
v  5.9284 -0.1995 -0.0000
v  6.5790 -0.1776 10.7524
v  6.5790 -0.1776 -0.0000
v  7.1935 -0.1118 10.7524
v  7.1935 -0.1118 -0.0000
v  7.7720 -0.0022 10.7524
v  7.7720 -0.0022 -0.0000
v  8.3145 0.1513 10.7524
v  8.3145 0.1513 -0.0000
v  8.8208 0.3486 10.7524
v  8.8208 0.3486 -0.0000
v  9.2911 0.5898 10.7524
v  9.2911 0.5898 -0.0000
v  9.7253 0.8748 10.7524
v  9.7253 0.8748 -0.0000
v  10.1118 1.2100 10.7524
v  10.1118 1.2100 -0.0000
v  10.4388 1.6014 10.7524
v  10.4388 1.6014 -0.0000
v  10.7063 2.0491 10.7524
v  10.7063 2.0491 -0.0000
v  10.9144 2.5532 10.7524
v  10.9144 2.5532 -0.0000
v  11.0630 3.1135 10.7524
v  11.0630 3.1135 0.0000
v  11.1522 3.7302 10.7524
v  11.1522 3.7302 0.0000
v  11.1819 4.4031 10.7524
v  11.1819 4.4031 0.0000
v  11.1819 13.0359 10.7524
v  11.1819 13.0359 0.0000
v  21.2027 13.0359 10.7524
v  24.4617 13.0359 10.7524
v  24.4617 13.0359 0.0000
v  21.2027 13.0359 0.0000
v  21.2027 9.1769 10.7524
v  21.2027 9.1769 0.0000
v  21.2090 8.6791 10.7524
v  21.2090 8.6791 0.0000
v  21.2277 8.1843 10.7524
v  21.2277 8.1843 0.0000
v  21.2588 7.6927 10.7524
v  21.2588 7.6927 0.0000
v  21.3025 7.2042 10.7524
v  21.3025 7.2042 0.0000
v  21.3586 6.7187 10.7524
v  21.3586 6.7188 0.0000
v  21.4272 6.2364 10.7524
v  21.4272 6.2364 0.0000
v  21.5083 5.7572 10.7524
v  21.5083 5.7572 0.0000
v  21.3637 6.0715 10.7524
v  21.3637 6.0715 0.0000
v  21.2014 6.4000 10.7524
v  21.2014 6.4000 0.0000
v  21.0213 6.7428 10.7524
v  21.0213 6.7428 0.0000
v  20.8235 7.0998 10.7524
v  20.8235 7.0998 0.0000
v  20.6080 7.4711 10.7524
v  20.6080 7.4711 0.0000
v  20.3747 7.8567 10.7524
v  20.3747 7.8567 0.0000
v  20.1237 8.2566 10.7524
v  20.1237 8.2566 0.0000
v  17.0791 13.0359 10.7524
v  17.0791 13.0359 0.0000
v  13.3102 13.0359 10.7524
v  13.3102 13.0359 0.0000
v  13.3102 -0.0000 10.7524
v  13.3102 0.0000 -0.0000
v  16.5471 -0.0000 10.7524
v  16.5471 0.0000 -0.0000
v  16.5471 6.3136 10.7524
v  16.5471 6.3136 0.0000
v  16.5406 6.5724 10.7524
v  16.5406 6.5724 0.0000
v  16.5213 6.8468 10.7524
v  16.5213 6.8468 0.0000
v  16.4892 7.1368 10.7524
v  16.4892 7.1368 0.0000
v  16.4442 7.4424 10.7524
v  16.4442 7.4424 0.0000
v  16.3864 7.7637 10.7524
v  16.3864 7.7637 0.0000
v  16.3157 8.1005 10.7524
v  16.3157 8.1005 0.0000
v  16.2322 8.4530 10.7524
v  16.2322 8.4530 0.0000
v  16.4314 8.0100 10.7524
v  16.4314 8.0100 0.0000
v  16.6304 7.5864 10.7524
v  16.6304 7.5864 0.0000
v  16.8289 7.1823 10.7524
v  16.8289 7.1823 0.0000
v  17.0272 6.7977 10.7524
v  17.0272 6.7977 0.0000
v  17.2251 6.4325 10.7524
v  17.2251 6.4325 0.0000
v  17.4226 6.0867 10.7524
v  17.4226 6.0867 0.0000
v  17.6199 5.7604 10.7524
v  17.6199 5.7604 0.0000
v  21.2027 -0.0000 10.7524
v  21.2027 0.0000 -0.0000
v  24.4617 -0.0000 10.7524
v  24.4617 0.0000 -0.0000
v  33.8992 13.0359 10.7524
v  37.9909 -0.0000 10.7524
v  37.9909 0.0000 -0.0000
v  33.8992 13.0359 0.0000
v  29.6696 13.0359 10.7524
v  29.6696 13.0359 0.0000
v  25.6533 -0.0000 10.7524
v  25.6533 0.0000 -0.0000
v  28.9005 -0.0000 10.7524
v  28.9005 0.0000 -0.0000
v  29.6765 2.5717 10.7524
v  29.6765 2.5717 -0.0000
v  33.1821 2.5717 10.7524
v  33.1821 2.5717 -0.0000
v  33.9082 -0.0000 10.7524
v  33.9082 0.0000 -0.0000
v  32.4526 5.4095 10.7524
v  31.4120 9.1392 10.7524
v  31.4120 9.1392 0.0000
v  32.4526 5.4095 0.0000
v  30.3880 5.4095 10.7524
v  30.3880 5.4095 0.0000
# 284 vertices

vn 0.8218 -0.5698 -0.0000
vn 0.0000 1.0000 0.0000
vn -0.8306 0.5569 0.0000
vn 1.0000 0.0000 -0.0000
vn -1.0000 0.0000 -0.0000
vn 0.0000 -1.0000 -0.0000
vn 0.8129 -0.5824 -0.0000
vn -0.9089 -0.4171 -0.0000
vn 0.8965 0.4430 0.0000
vn -0.9999 0.0130 0.0000
vn -1.0000 0.0060 0.0000
vn -0.9996 0.0286 0.0000
vn -0.9988 0.0483 0.0000
vn -0.9973 0.0739 0.0000
vn -0.9941 0.1085 0.0000
vn -0.9875 0.1575 0.0000
vn -0.9710 0.2393 0.0000
vn -0.9352 0.3541 0.0000
vn -0.8819 0.4715 0.0000
vn -0.8189 0.5739 0.0000
vn -0.7514 0.6599 0.0000
vn -0.6834 0.7300 0.0000
vn -0.6181 0.7861 0.0000
vn -0.5498 0.8353 0.0000
vn -0.4691 0.8831 0.0000
vn -0.3810 0.9246 0.0000
vn -0.2948 0.9556 0.0000
vn -0.2125 0.9772 0.0000
vn -0.1357 0.9908 0.0000
vn -0.0650 0.9979 0.0000
vn 0.0027 1.0000 0.0000
vn 0.0778 0.9970 0.0000
vn 0.1665 0.9860 0.0000
vn 0.2678 0.9635 0.0000
vn 0.3806 0.9247 0.0000
vn 0.5009 0.8655 0.0000
vn 0.6219 0.7831 0.0000
vn 0.7340 0.6791 0.0000
vn 0.8269 0.5624 0.0000
vn 0.8958 0.4444 0.0000
vn 0.9430 0.3329 0.0000
vn 0.9727 0.2320 0.0000
vn 0.9897 0.1435 0.0000
vn 0.9978 0.0669 0.0000
vn 0.9995 0.0315 0.0000
vn -0.9949 -0.1011 -0.0000
vn -0.9989 -0.0477 -0.0000
vn -0.9766 -0.2151 -0.0000
vn -0.9399 -0.3415 -0.0000
vn -0.8800 -0.4749 -0.0000
vn -0.7954 -0.6061 -0.0000
vn -0.6891 -0.7247 -0.0000
vn -0.5770 -0.8168 -0.0000
vn -0.4766 -0.8791 -0.0000
vn -0.3847 -0.9230 -0.0000
vn -0.2957 -0.9553 -0.0000
vn -0.2118 -0.9773 -0.0000
vn -0.1345 -0.9909 -0.0000
vn -0.0641 -0.9979 -0.0000
vn 0.0015 -1.0000 -0.0000
vn 0.0701 -0.9975 -0.0000
vn 0.1464 -0.9892 -0.0000
vn 0.2295 -0.9733 -0.0000
vn 0.3181 -0.9481 -0.0000
vn 0.4103 -0.9120 -0.0000
vn 0.5033 -0.8641 -0.0000
vn 0.6033 -0.7975 -0.0000
vn 0.7136 -0.7006 -0.0000
vn 0.8155 -0.5788 -0.0000
vn 0.8938 -0.4485 -0.0000
vn 0.9475 -0.3197 -0.0000
vn 0.9798 -0.2001 -0.0000
vn 0.9956 -0.0937 -0.0000
vn 0.9990 -0.0441 -0.0000
vn -0.9997 -0.0252 -0.0000
vn -0.9999 -0.0125 -0.0000
vn -0.9987 -0.0505 -0.0000
vn -0.9971 -0.0761 -0.0000
vn -0.9948 -0.1019 -0.0000
vn -0.9918 -0.1278 -0.0000
vn -0.9881 -0.1538 -0.0000
vn -0.9860 -0.1668 -0.0000
vn 0.9026 0.4305 0.0000
vn 0.9085 0.4179 0.0000
vn 0.8910 0.4540 0.0000
vn 0.8801 0.4748 0.0000
vn 0.8698 0.4933 0.0000
vn 0.8603 0.5099 0.0000
vn 0.8513 0.5247 0.0000
vn 0.8469 0.5317 0.0000
vn 0.8434 0.5373 0.0000
vn 0.9989 0.0475 0.0000
vn 0.9997 0.0248 0.0000
vn 0.9959 0.0901 0.0000
vn 0.9918 0.1279 0.0000
vn 0.9869 0.1614 0.0000
vn 0.9815 0.1913 0.0000
vn 0.9759 0.2180 0.0000
vn 0.9730 0.2306 0.0000
vn -0.9086 -0.4177 -0.0000
vn -0.9120 -0.4102 -0.0000
vn -0.9013 -0.4331 -0.0000
vn -0.8932 -0.4496 -0.0000
vn -0.8841 -0.4673 -0.0000
vn -0.8738 -0.4863 -0.0000
vn -0.8621 -0.5067 -0.0000
vn -0.8558 -0.5172 -0.0000
vn -0.8491 -0.5282 -0.0000
vn 0.9541 0.2995 0.0000
vn -0.9557 0.2944 0.0000
vn 0.9574 -0.2889 -0.0000
vn -0.9624 -0.2717 -0.0000
vn -0.9632 -0.2687 -0.0000
vn 0.9643 -0.2647 -0.0000
vn 0.0000 0.0000 -1.0000
vn 0.0000 -0.0000 1.0000
# 116 vertex normals

g Text001
usemtl wire_177088027
s 1
f 1//1 2//1 3//1 4//1 
s 4
f 5//2 1//2 4//2 6//2 
s 2
f 7//3 5//3 6//3 8//3 
s 4
f 9//4 7//4 8//4 10//4 
s 2
f 11//2 9//2 10//2 12//2 
s 4
f 13//5 11//5 12//5 14//5 
s 2
f 15//6 13//6 14//6 16//6 
s 4
f 17//4 15//4 16//4 18//4 
s 2
f 19//7 17//7 18//7 20//7 
s 4
f 21//8 19//8 20//8 22//8 
s 2
f 23//6 21//6 22//6 24//6 
s 4
f 2//9 23//9 24//9 3//9 
s 1
f 25//5 26//5 27//5 28//5 
s 4
f 29//2 25//2 28//2 30//2 
s 2
f 31//4 29//4 30//4 32//4 
s 4
f 33//2 31//2 32//2 34//2 
s 2
f 35//5 33//5 34//5 36//5 
s 4
f 37//6 35//6 36//6 38//6 
s 2
f 39//4 37//4 38//4 40//4 
s 4
f 41//6 39//6 40//6 42//6 
s 2
f 43//5 41//5 42//5 44//5 
s 4
f 45//6 43//6 44//6 46//6 
s 2
f 47//4 45//4 46//4 48//4 
s 4
f 26//2 47//2 48//2 27//2 
s 1
f 49//5 50//5 51//5 52//5 
s 4
f 53//10 49//11 52//11 54//10 
f 55//12 53//10 54//10 56//12 
f 57//13 55//12 56//12 58//13 
f 59//14 57//13 58//13 60//14 
f 61//15 59//14 60//14 62//15 
f 63//16 61//15 62//15 64//16 
f 65//17 63//16 64//16 66//17 
f 67//18 65//17 66//17 68//18 
f 69//19 67//18 68//18 70//19 
f 71//20 69//19 70//19 72//20 
f 73//21 71//20 72//20 74//21 
f 75//22 73//21 74//21 76//22 
f 77//23 75//22 76//22 78//23 
f 79//24 77//23 78//23 80//24 
f 81//25 79//24 80//24 82//25 
f 83//26 81//25 82//25 84//26 
f 85//27 83//26 84//26 86//27 
f 87//28 85//27 86//27 88//28 
f 89//29 87//28 88//28 90//29 
f 91//30 89//29 90//29 92//30 
f 93//31 91//30 92//30 94//31 
f 95//32 93//31 94//31 96//32 
f 97//33 95//32 96//32 98//33 
f 99//34 97//33 98//33 100//34 
f 101//35 99//34 100//34 102//35 
f 103//36 101//35 102//35 104//36 
f 105//37 103//36 104//36 106//37 
f 107//38 105//37 106//37 108//38 
f 109//39 107//38 108//38 110//39 
f 111//40 109//39 110//39 112//40 
f 113//41 111//40 112//40 114//41 
f 115//42 113//41 114//41 116//42 
f 117//43 115//42 116//42 118//43 
f 119//44 117//43 118//43 120//44 
f 121//45 119//44 120//44 122//45 
s 2
f 123//4 121//4 122//4 124//4 
s 4
f 125//2 123//2 124//2 126//2 
s 2
f 127//5 125//5 126//5 128//5 
s 4
f 129//46 127//47 128//47 130//46 
f 131//48 129//46 130//46 132//48 
f 133//49 131//48 132//48 134//49 
f 135//50 133//49 134//49 136//50 
f 137//51 135//50 136//50 138//51 
f 139//52 137//51 138//51 140//52 
f 141//53 139//52 140//52 142//53 
f 143//54 141//53 142//53 144//54 
f 145//55 143//54 144//54 146//55 
f 147//56 145//55 146//55 148//56 
f 149//57 147//56 148//56 150//57 
f 151//58 149//57 150//57 152//58 
f 153//59 151//58 152//58 154//59 
f 155//60 153//59 154//59 156//60 
f 157//61 155//60 156//60 158//61 
f 159//62 157//61 158//61 160//62 
f 161//63 159//62 160//62 162//63 
f 163//64 161//63 162//63 164//64 
f 165//65 163//64 164//64 166//65 
f 167//66 165//65 166//65 168//66 
f 169//67 167//66 168//66 170//67 
f 171//68 169//67 170//67 172//68 
f 173//69 171//68 172//68 174//69 
f 175//70 173//69 174//69 176//70 
f 177//71 175//70 176//70 178//71 
f 179//72 177//71 178//71 180//72 
f 181//73 179//72 180//72 182//73 
f 183//74 181//73 182//73 184//74 
s 2
f 185//4 183//4 184//4 186//4 
s 4
f 50//2 185//2 186//2 51//2 
s 1
f 187//2 188//2 189//2 190//2 
s 4
f 191//5 187//5 190//5 192//5 
s 2
f 193//75 191//76 192//76 194//75 
f 195//77 193//75 194//75 196//77 
f 197//78 195//77 196//77 198//78 
f 199//79 197//78 198//78 200//79 
f 201//80 199//79 200//79 202//80 
f 203//81 201//80 202//80 204//81 
f 205//82 203//81 204//81 206//82 
s 4
f 207//83 205//84 206//84 208//83 
f 209//85 207//83 208//83 210//85 
f 211//86 209//85 210//85 212//86 
f 213//87 211//86 212//86 214//87 
f 215//88 213//87 214//87 216//88 
f 217//89 215//88 216//88 218//89 
f 219//90 217//89 218//89 220//90 
s 2
f 221//91 219//91 220//91 222//91 
s 4
f 223//2 221//2 222//2 224//2 
s 2
f 225//5 223//5 224//5 226//5 
s 4
f 227//6 225//6 226//6 228//6 
s 2
f 229//4 227//4 228//4 230//4 
s 4
f 231//92 229//93 230//93 232//92 
f 233//94 231//92 232//92 234//94 
f 235//95 233//94 234//94 236//95 
f 237//96 235//95 236//95 238//96 
f 239//97 237//96 238//96 240//97 
f 241//98 239//97 240//97 242//98 
f 243//99 241//98 242//98 244//99 
s 2
f 245//100 243//101 244//101 246//100 
f 247//102 245//100 246//100 248//102 
f 249//103 247//102 248//102 250//103 
f 251//104 249//103 250//103 252//104 
f 253//105 251//104 252//104 254//105 
f 255//106 253//105 254//105 256//106 
f 257//107 255//106 256//106 258//107 
s 4
f 259//108 257//108 258//108 260//108 
s 2
f 261//6 259//6 260//6 262//6 
s 4
f 188//4 261//4 262//4 189//4 
s 1
f 263//109 264//109 265//109 266//109 
s 4
f 267//2 263//2 266//2 268//2 
s 2
f 269//110 267//110 268//110 270//110 
s 4
f 271//6 269//6 270//6 272//6 
s 2
f 273//111 271//111 272//111 274//111 
s 4
f 275//6 273//6 274//6 276//6 
s 2
f 277//112 275//112 276//112 278//112 
s 4
f 264//6 277//6 278//6 265//6 
s 1
f 279//113 280//113 281//113 282//113 
s 4
f 283//2 279//2 282//2 284//2 
s 2
f 280//114 283//114 284//114 281//114 
s 16
f 12//115 10//115 8//115 20//115 
f 6//115 4//115 3//115 8//115 
f 3//115 24//115 22//115 20//115 
f 8//115 3//115 20//115 
f 12//115 20//115 18//115 14//115 
f 14//115 18//115 16//115 
f 34//115 32//115 30//115 40//115 
f 27//115 48//115 46//115 28//115 
f 46//115 44//115 42//115 28//115 
f 28//115 42//115 40//115 30//115 
f 36//115 34//115 40//115 38//115 
f 128//115 126//115 124//115 122//115 
f 128//115 122//115 120//115 130//115 
f 130//115 120//115 118//115 132//115 
f 132//115 118//115 116//115 134//115 
f 134//115 116//115 114//115 136//115 
f 138//115 136//115 114//115 112//115 
f 140//115 138//115 112//115 142//115 
f 142//115 112//115 110//115 144//115 
f 146//115 144//115 110//115 108//115 
f 148//115 146//115 108//115 106//115 
f 150//115 148//115 106//115 104//115 
f 152//115 150//115 104//115 102//115 
f 154//115 152//115 102//115 100//115 
f 154//115 100//115 98//115 156//115 
f 156//115 98//115 96//115 158//115 
f 158//115 96//115 94//115 92//115 
f 160//115 158//115 92//115 90//115 
f 160//115 90//115 88//115 162//115 
f 162//115 88//115 86//115 164//115 
f 164//115 86//115 84//115 82//115 
f 164//115 82//115 80//115 166//115 
f 166//115 80//115 78//115 168//115 
f 168//115 78//115 76//115 170//115 
f 170//115 76//115 74//115 172//115 
f 172//115 74//115 72//115 174//115 
f 174//115 72//115 70//115 176//115 
f 176//115 70//115 68//115 178//115 
f 178//115 68//115 66//115 180//115 
f 180//115 66//115 64//115 62//115 
f 182//115 180//115 62//115 60//115 
f 182//115 60//115 58//115 184//115 
f 184//115 58//115 56//115 54//115 
f 184//115 54//115 52//115 51//115 
f 184//115 51//115 186//115 
f 192//115 190//115 189//115 194//115 
f 196//115 194//115 189//115 198//115 
f 200//115 198//115 189//115 202//115 
f 204//115 202//115 189//115 206//115 
f 189//115 262//115 260//115 206//115 
f 208//115 206//115 260//115 210//115 
f 212//115 210//115 260//115 214//115 
f 216//115 214//115 260//115 258//115 
f 218//115 216//115 258//115 256//115 
f 218//115 256//115 254//115 220//115 
f 220//115 254//115 252//115 250//115 
f 220//115 250//115 248//115 246//115 
f 220//115 246//115 244//115 222//115 
f 224//115 222//115 244//115 242//115 
f 224//115 242//115 240//115 238//115 
f 224//115 238//115 236//115 234//115 
f 224//115 234//115 232//115 230//115 
f 226//115 224//115 230//115 228//115 
f 284//115 282//115 276//115 274//115 
f 284//115 274//115 272//115 270//115 
f 281//115 284//115 270//115 268//115 
f 281//115 268//115 266//115 265//115 
f 278//115 276//115 282//115 265//115 
f 281//115 265//115 282//115 
f 13//116 15//116 17//116 11//116 
f 21//116 23//116 2//116 19//116 
f 2//116 1//116 5//116 7//116 
f 19//116 2//116 7//116 11//116 
f 7//116 9//116 11//116 
f 17//116 19//116 11//116 
f 35//116 37//116 39//116 33//116 
f 41//116 43//116 45//116 25//116 
f 45//116 47//116 26//116 25//116 
f 39//116 41//116 25//116 29//116 
f 29//116 31//116 33//116 39//116 
f 183//116 185//116 50//116 49//116 
f 183//116 49//116 53//116 55//116 
f 183//116 55//116 57//116 181//116 
f 123//116 125//116 127//116 121//116 
f 119//116 121//116 127//116 129//116 
f 117//116 119//116 129//116 131//116 
f 115//116 117//116 131//116 133//116 
f 113//116 115//116 133//116 135//116 
f 113//116 135//116 137//116 111//116 
f 111//116 137//116 139//116 141//116 
f 109//116 111//116 141//116 143//116 
f 109//116 143//116 145//116 107//116 
f 107//116 145//116 147//116 105//116 
f 105//116 147//116 149//116 103//116 
f 103//116 149//116 151//116 101//116 
f 101//116 151//116 153//116 99//116 
f 97//116 99//116 153//116 155//116 
f 95//116 97//116 155//116 157//116 
f 93//116 95//116 157//116 91//116 
f 91//116 157//116 159//116 89//116 
f 87//116 89//116 159//116 161//116 
f 85//116 87//116 161//116 163//116 
f 83//116 85//116 163//116 81//116 
f 79//116 81//116 163//116 165//116 
f 77//116 79//116 165//116 167//116 
f 75//116 77//116 167//116 169//116 
f 73//116 75//116 169//116 171//116 
f 71//116 73//116 171//116 173//116 
f 69//116 71//116 173//116 175//116 
f 67//116 69//116 175//116 177//116 
f 65//116 67//116 177//116 179//116 
f 63//116 65//116 179//116 61//116 
f 61//116 179//116 181//116 59//116 
f 57//116 59//116 181//116 
f 225//116 227//116 229//116 223//116 
f 259//116 261//116 188//116 205//116 
f 188//116 187//116 191//116 193//116 
f 188//116 193//116 195//116 197//116 
f 188//116 197//116 199//116 201//116 
f 188//116 201//116 203//116 205//116 
f 259//116 205//116 207//116 209//116 
f 259//116 209//116 211//116 213//116 
f 259//116 213//116 215//116 257//116 
f 257//116 215//116 217//116 255//116 
f 253//116 255//116 217//116 219//116 
f 251//116 253//116 219//116 249//116 
f 247//116 249//116 219//116 245//116 
f 243//116 245//116 219//116 221//116 
f 243//116 221//116 223//116 241//116 
f 239//116 241//116 223//116 237//116 
f 235//116 237//116 223//116 233//116 
f 231//116 233//116 223//116 229//116 
f 279//116 283//116 273//116 275//116 
f 279//116 275//116 277//116 264//116 
f 280//116 279//116 264//116 263//116 
f 280//116 263//116 267//116 269//116 
f 271//116 273//116 283//116 269//116 
f 280//116 269//116 283//116 
# 272 polygons - 8 triangles

