# MagicaVoxel @ ephtracy

# material
mtllib tree_1.mtl
usemtl palette

# normals
vn -1 0 0
vn 1 0 0
vn 0 0 1
vn 0 0 -1
vn 0 -1 0
vn 0 1 0

# texcoords
vt 0.533203 0.5
vt 0.537109 0.5
vt 0.880859 0.5
vt 0.892578 0.5
vt 0.904297 0.5

# verts
v -4 10 2.5
v -4 10 1.5
v -4 11 2.5
v -4 11 1.5
v -4 12 2.5
v -4 12 1.5
v -3 10 1.5
v -3 10 0.5
v -3 10 -2.5
v -3 11 3.5
v -3 11 2.5
v -3 11 1.5
v -3 11 0.5
v -3 11 -0.5
v -3 11 -1.5
v -3 11 -2.5
v -3 12 2.5
v -3 12 1.5
v -3 12 -0.5
v -3 12 -1.5
v -3 12 -2.5
v -3 13 3.5
v -3 13 -1.5
v -2 8 2.5
v -2 8 -1.5
v -2 10 3.5
v -2 10 2.5
v -2 10 1.5
v -2 10 0.5
v -2 10 -1.5
v -2 10 -2.5
v -2 10 -3.5
v -2 11 3.5
v -2 11 2.5
v -2 11 -2.5
v -2 12 -1.5
v -2 12 -2.5
v -2 12 -3.5
v -2 13 2.5
v -2 13 -1.5
v -2 13 -2.5
v -2 14 2.5
v -2 14 1.5
v -2 14 -0.5
v -2 14 -1.5
v -2 15 1.5
v -2 15 -0.5
v -1 0 1.5
v -1 0 -0.5
v -1 2 0.5
v -1 2 -0.5
v -1 3 0.5
v -1 3 -0.5
v -1 8 1.5
v -1 8 -0.5
v -1 13 -1.5
v -1 13 -2.5
v -1 14 2.5
v -1 14 1.5
v -1 14 -0.5
v -1 14 -1.5
v -1 14 -2.5
v -1 15 2.5
v -1 15 1.5
v -1 15 -0.5
v -1 15 -1.5
v 0 9 -1.5
v 0 9 -2.5
v 0 10 -1.5
v 0 10 -2.5
v 1 0 1.5
v 1 0 -0.5
v 1 1 1.5
v 1 1 0.5
v 1 2 1.5
v 1 2 0.5
v 1 4 0.5
v 1 4 -0.5
v 1 5 1.5
v 1 5 0.5
v 1 5 -0.5
v 1 6 1.5
v 1 6 0.5
v 1 8 1.5
v 1 8 -0.5
v 1 9 -1.5
v 1 9 -2.5
v 1 10 -1.5
v 1 10 -2.5
v 1 10 -3.5
v 1 11 -2.5
v 1 11 -3.5
v 1 13 -1.5
v 1 13 -2.5
v 1 14 2.5
v 1 14 1.5
v 1 14 -0.5
v 1 14 -1.5
v 1 14 -2.5
v 1 15 2.5
v 1 15 1.5
v 1 15 -0.5
v 1 15 -1.5
v 2 8 2.5
v 2 8 -1.5
v 2 9 1.5
v 2 9 0.5
v 2 10 3.5
v 2 10 2.5
v 2 10 1.5
v 2 10 0.5
v 2 10 -0.5
v 2 10 -1.5
v 2 10 -2.5
v 2 11 3.5
v 2 11 2.5
v 2 11 -1.5
v 2 11 -2.5
v 2 12 3.5
v 2 12 2.5
v 2 13 3.5
v 2 13 2.5
v 2 13 0.5
v 2 13 -0.5
v 2 13 -1.5
v 2 14 2.5
v 2 14 1.5
v 2 14 0.5
v 2 14 -0.5
v 2 14 -1.5
v 2 15 1.5
v 2 15 -0.5
v 3 10 2.5
v 3 10 1.5
v 3 10 0.5
v 3 10 -0.5
v 3 10 -1.5
v 3 11 3.5
v 3 11 2.5
v 3 11 1.5
v 3 11 0.5
v 3 11 -0.5
v 3 11 -1.5
v 3 11 -3.5
v 3 12 3.5
v 3 12 2.5
v 3 12 0.5
v 3 12 -0.5
v 3 12 -1.5
v 3 12 -2.5
v 3 12 -3.5
v 3 13 2.5
v 3 13 0.5
v 3 13 -1.5
v 3 13 -2.5
v 4 12 0.5
v 4 12 -0.5
v 4 12 -1.5
v 4 13 0.5
v 4 13 -0.5
v 4 13 -1.5
v -3 11 3.5
v -3 13 3.5
v -2 10 3.5
v -2 11 3.5
v -1 10 3.5
v -1 11 3.5
v 0 10 3.5
v 0 11 3.5
v 1 10 3.5
v 1 11 3.5
v 2 10 3.5
v 2 11 3.5
v 2 12 3.5
v 2 13 3.5
v 3 11 3.5
v 3 12 3.5
v -4 10 2.5
v -4 11 2.5
v -4 12 2.5
v -3 11 2.5
v -3 12 2.5
v -2 8 2.5
v -2 10 2.5
v -2 11 2.5
v -2 13 2.5
v -2 14 2.5
v -1 10 2.5
v -1 14 2.5
v -1 15 2.5
v 0 10 2.5
v 0 14 2.5
v 0 15 2.5
v 1 10 2.5
v 1 14 2.5
v 1 15 2.5
v 2 8 2.5
v 2 10 2.5
v 2 11 2.5
v 2 12 2.5
v 2 13 2.5
v 2 14 2.5
v 3 10 2.5
v 3 11 2.5
v 3 12 2.5
v 3 13 2.5
v -2 14 1.5
v -2 15 1.5
v -1 0 1.5
v -1 8 1.5
v -1 14 1.5
v -1 15 1.5
v 0 1 1.5
v 0 2 1.5
v 0 5 1.5
v 0 6 1.5
v 1 0 1.5
v 1 1 1.5
v 1 2 1.5
v 1 5 1.5
v 1 6 1.5
v 1 8 1.5
v 1 14 1.5
v 1 15 1.5
v 2 14 1.5
v 2 15 1.5
v 3 12 0.5
v 3 13 0.5
v 4 12 0.5
v 4 13 0.5
v -4 10 1.5
v -4 11 1.5
v -4 12 1.5
v -3 10 1.5
v -3 11 1.5
v -3 12 1.5
v -2 14 -0.5
v -2 15 -0.5
v -1 0 -0.5
v -1 2 -0.5
v -1 3 -0.5
v -1 8 -0.5
v -1 14 -0.5
v -1 15 -0.5
v 0 2 -0.5
v 0 3 -0.5
v 0 4 -0.5
v 0 5 -0.5
v 1 0 -0.5
v 1 4 -0.5
v 1 5 -0.5
v 1 8 -0.5
v 1 14 -0.5
v 1 15 -0.5
v 2 14 -0.5
v 2 15 -0.5
v -3 12 -1.5
v -3 13 -1.5
v -2 8 -1.5
v -2 10 -1.5
v -2 12 -1.5
v -2 13 -1.5
v -2 14 -1.5
v -1 13 -1.5
v -1 14 -1.5
v -1 15 -1.5
v 0 9 -1.5
v 0 10 -1.5
v 0 14 -1.5
v 1 9 -1.5
v 1 10 -1.5
v 1 13 -1.5
v 1 14 -1.5
v 1 15 -1.5
v 2 8 -1.5
v 2 10 -1.5
v 2 11 -1.5
v 2 13 -1.5
v 2 14 -1.5
v 3 10 -1.5
v 3 11 -1.5
v 3 12 -1.5
v 3 13 -1.5
v 4 12 -1.5
v 4 13 -1.5
v -3 10 -2.5
v -3 11 -2.5
v -3 12 -2.5
v -2 10 -2.5
v -2 11 -2.5
v -2 12 -2.5
v -2 13 -2.5
v -1 12 -2.5
v -1 13 -2.5
v -1 14 -2.5
v 0 9 -2.5
v 0 10 -2.5
v 0 12 -2.5
v 0 13 -2.5
v 0 14 -2.5
v 1 9 -2.5
v 1 10 -2.5
v 1 11 -2.5
v 1 13 -2.5
v 1 14 -2.5
v 2 10 -2.5
v 2 11 -2.5
v 3 12 -2.5
v 3 13 -2.5
v -2 10 -3.5
v -2 12 -3.5
v -1 11 -3.5
v -1 12 -3.5
v 0 11 -3.5
v 0 12 -3.5
v 1 10 -3.5
v 1 11 -3.5
v 3 11 -3.5
v 3 12 -3.5
v -1 0 1.5
v 1 0 1.5
v -1 0 -0.5
v 1 0 -0.5
v -2 8 2.5
v 2 8 2.5
v -1 8 1.5
v 1 8 1.5
v -1 8 -0.5
v 1 8 -0.5
v -2 8 -1.5
v 2 8 -1.5
v 0 9 -1.5
v 1 9 -1.5
v 0 9 -2.5
v 1 9 -2.5
v -2 10 3.5
v -1 10 3.5
v 0 10 3.5
v 1 10 3.5
v 2 10 3.5
v -4 10 2.5
v -2 10 2.5
v -1 10 2.5
v 0 10 2.5
v 1 10 2.5
v 2 10 2.5
v 3 10 2.5
v -4 10 1.5
v -3 10 1.5
v -2 10 1.5
v 2 10 1.5
v 3 10 1.5
v -3 10 0.5
v -2 10 0.5
v 2 10 0.5
v 3 10 0.5
v 2 10 -0.5
v 3 10 -0.5
v -2 10 -1.5
v 0 10 -1.5
v 1 10 -1.5
v 2 10 -1.5
v 3 10 -1.5
v -3 10 -2.5
v -2 10 -2.5
v 0 10 -2.5
v 1 10 -2.5
v 2 10 -2.5
v -2 10 -3.5
v 1 10 -3.5
v -3 11 3.5
v -2 11 3.5
v 2 11 3.5
v 3 11 3.5
v -3 11 2.5
v -2 11 2.5
v 2 11 2.5
v 3 11 2.5
v 2 11 -1.5
v 3 11 -1.5
v 1 11 -2.5
v 2 11 -2.5
v 1 11 -3.5
v 3 11 -3.5
v 3 12 0.5
v 4 12 0.5
v 3 12 -0.5
v 4 12 -0.5
v 3 12 -1.5
v 4 12 -1.5
v 2 12 3.5
v 3 12 3.5
v -4 12 2.5
v -3 12 2.5
v 2 12 2.5
v 3 12 2.5
v -4 12 1.5
v -3 12 1.5
v -3 12 -1.5
v -2 12 -1.5
v -3 12 -2.5
v -2 12 -2.5
v -1 12 -2.5
v 0 12 -2.5
v 3 12 -2.5
v -2 12 -3.5
v -1 12 -3.5
v 0 12 -3.5
v 3 12 -3.5
v -3 13 3.5
v 2 13 3.5
v -2 13 2.5
v 2 13 2.5
v 3 13 2.5
v 2 13 0.5
v 3 13 0.5
v 4 13 0.5
v 2 13 -0.5
v 3 13 -0.5
v 4 13 -0.5
v -3 13 -1.5
v -2 13 -1.5
v -1 13 -1.5
v 1 13 -1.5
v 2 13 -1.5
v 3 13 -1.5
v 4 13 -1.5
v -2 13 -2.5
v -1 13 -2.5
v 1 13 -2.5
v 3 13 -2.5
v -2 14 2.5
v -1 14 2.5
v 1 14 2.5
v 2 14 2.5
v -2 14 1.5
v -1 14 1.5
v 1 14 1.5
v 2 14 1.5
v -2 14 -0.5
v -1 14 -0.5
v 1 14 -0.5
v 2 14 -0.5
v -2 14 -1.5
v -1 14 -1.5
v 0 14 -1.5
v 1 14 -1.5
v 2 14 -1.5
v -1 14 -2.5
v 0 14 -2.5
v 1 14 -2.5
v -1 15 2.5
v 0 15 2.5
v 1 15 2.5
v -2 15 1.5
v -1 15 1.5
v 0 15 1.5
v 1 15 1.5
v 2 15 1.5
v -2 15 -0.5
v -1 15 -0.5
v 1 15 -0.5
v 2 15 -0.5
v -1 15 -1.5
v 1 15 -1.5

# faces
f 3/4/1 2/4/1 1/4/1
f 4/4/1 2/4/1 3/4/1
f 5/5/1 4/5/1 3/5/1
f 6/5/1 4/5/1 5/5/1
f 12/3/1 8/3/1 7/3/1
f 13/4/1 9/4/1 8/4/1
f 13/3/1 8/3/1 12/3/1
f 14/4/1 9/4/1 13/4/1
f 15/4/1 9/4/1 14/4/1
f 16/4/1 9/4/1 15/4/1
f 17/4/1 11/4/1 10/4/1
f 18/4/1 13/4/1 12/4/1
f 18/4/1 14/4/1 13/4/1
f 19/3/1 15/3/1 14/3/1
f 19/4/1 14/4/1 18/4/1
f 20/5/1 16/5/1 15/5/1
f 20/3/1 15/3/1 19/3/1
f 21/5/1 16/5/1 20/5/1
f 22/4/1 17/4/1 10/4/1
f 22/4/1 19/4/1 18/4/1
f 22/4/1 20/4/1 19/4/1
f 22/4/1 18/4/1 17/4/1
f 23/4/1 20/4/1 22/4/1
f 27/4/1 25/4/1 24/4/1
f 28/4/1 25/4/1 27/4/1
f 29/4/1 25/4/1 28/4/1
f 30/4/1 25/4/1 29/4/1
f 33/3/1 27/3/1 26/3/1
f 34/3/1 27/3/1 33/3/1
f 35/4/1 32/4/1 31/4/1
f 37/4/1 32/4/1 35/4/1
f 38/4/1 32/4/1 37/4/1
f 40/3/1 37/3/1 36/3/1
f 41/3/1 37/3/1 40/3/1
f 42/4/1 40/4/1 39/4/1
f 43/4/1 40/4/1 42/4/1
f 44/4/1 40/4/1 43/4/1
f 45/4/1 40/4/1 44/4/1
f 46/4/1 44/4/1 43/4/1
f 47/4/1 44/4/1 46/4/1
f 50/2/1 49/2/1 48/2/1
f 51/2/1 49/2/1 50/2/1
f 52/2/1 50/2/1 48/2/1
f 52/1/1 51/1/1 50/1/1
f 53/1/1 51/1/1 52/1/1
f 54/2/1 52/2/1 48/2/1
f 54/2/1 53/2/1 52/2/1
f 55/2/1 53/2/1 54/2/1
f 61/3/1 57/3/1 56/3/1
f 62/3/1 57/3/1 61/3/1
f 63/3/1 59/3/1 58/3/1
f 64/3/1 59/3/1 63/3/1
f 65/4/1 61/4/1 60/4/1
f 66/4/1 61/4/1 65/4/1
f 69/4/1 68/4/1 67/4/1
f 70/4/1 68/4/1 69/4/1
f 71/2/2 72/2/2 73/2/2
f 73/2/2 72/2/2 74/2/2
f 73/1/2 74/1/2 75/1/2
f 74/2/2 72/2/2 76/2/2
f 75/1/2 74/1/2 76/1/2
f 75/2/2 76/2/2 77/2/2
f 76/2/2 72/2/2 77/2/2
f 77/2/2 72/2/2 78/2/2
f 75/2/2 77/2/2 79/2/2
f 77/1/2 78/1/2 80/1/2
f 79/2/2 77/2/2 80/2/2
f 80/1/2 78/1/2 81/1/2
f 79/1/2 80/1/2 82/1/2
f 80/2/2 81/2/2 83/2/2
f 82/1/2 80/1/2 83/1/2
f 82/2/2 83/2/2 84/2/2
f 83/2/2 81/2/2 85/2/2
f 84/2/2 83/2/2 85/2/2
f 86/4/2 87/4/2 88/4/2
f 88/4/2 87/4/2 89/4/2
f 89/4/2 90/4/2 91/4/2
f 91/4/2 90/4/2 92/4/2
f 93/4/2 94/4/2 98/4/2
f 98/4/2 94/4/2 99/4/2
f 95/4/2 96/4/2 100/4/2
f 100/4/2 96/4/2 101/4/2
f 97/4/2 98/4/2 102/4/2
f 102/4/2 98/4/2 103/4/2
f 104/4/2 105/4/2 106/4/2
f 106/4/2 105/4/2 107/4/2
f 104/4/2 106/4/2 109/4/2
f 106/3/2 107/3/2 110/3/2
f 109/4/2 106/4/2 110/4/2
f 107/4/2 105/4/2 111/4/2
f 110/3/2 107/3/2 111/3/2
f 111/4/2 105/4/2 112/4/2
f 112/4/2 105/4/2 113/4/2
f 108/4/2 109/4/2 115/4/2
f 115/4/2 109/4/2 116/4/2
f 113/4/2 114/4/2 117/4/2
f 117/4/2 114/4/2 118/4/2
f 119/4/2 120/4/2 121/4/2
f 121/4/2 120/4/2 122/4/2
f 122/4/2 123/4/2 126/4/2
f 126/4/2 123/4/2 127/4/2
f 123/3/2 124/3/2 128/3/2
f 127/4/2 123/4/2 128/4/2
f 124/4/2 125/4/2 129/4/2
f 128/3/2 124/3/2 129/3/2
f 129/4/2 125/4/2 130/4/2
f 127/4/2 128/4/2 131/4/2
f 128/4/2 129/4/2 131/4/2
f 131/4/2 129/4/2 132/4/2
f 133/5/2 134/5/2 139/5/2
f 134/4/2 135/4/2 140/4/2
f 139/5/2 134/5/2 140/5/2
f 135/3/2 136/3/2 141/3/2
f 140/4/2 135/4/2 141/4/2
f 136/4/2 137/4/2 142/4/2
f 141/3/2 136/3/2 142/3/2
f 142/4/2 137/4/2 143/4/2
f 140/4/2 141/4/2 145/4/2
f 143/4/2 144/4/2 145/4/2
f 142/4/2 143/4/2 145/4/2
f 141/4/2 142/4/2 145/4/2
f 138/4/2 139/4/2 145/4/2
f 139/4/2 140/4/2 145/4/2
f 145/4/2 144/4/2 146/4/2
f 146/4/2 144/4/2 147/4/2
f 147/4/2 144/4/2 148/4/2
f 148/4/2 144/4/2 149/4/2
f 149/4/2 144/4/2 150/4/2
f 150/4/2 144/4/2 151/4/2
f 146/4/2 147/4/2 152/4/2
f 152/4/2 147/4/2 153/4/2
f 149/4/2 150/4/2 154/4/2
f 154/4/2 150/4/2 155/4/2
f 156/4/2 157/4/2 159/4/2
f 157/5/2 158/5/2 160/5/2
f 159/4/2 157/4/2 160/4/2
f 160/5/2 158/5/2 161/5/2
f 165/4/3 163/4/3 162/4/3
f 166/3/3 165/3/3 164/3/3
f 167/4/3 163/4/3 165/4/3
f 167/3/3 165/3/3 166/3/3
f 168/4/3 167/4/3 166/4/3
f 169/4/3 163/4/3 167/4/3
f 169/4/3 167/4/3 168/4/3
f 170/3/3 169/3/3 168/3/3
f 171/4/3 163/4/3 169/4/3
f 171/3/3 169/3/3 170/3/3
f 172/4/3 171/4/3 170/4/3
f 173/4/3 163/4/3 171/4/3
f 173/4/3 171/4/3 172/4/3
f 174/4/3 163/4/3 173/4/3
f 175/4/3 163/4/3 174/4/3
f 176/4/3 174/4/3 173/4/3
f 177/4/3 174/4/3 176/4/3
f 181/4/3 179/4/3 178/4/3
f 181/5/3 180/5/3 179/5/3
f 182/5/3 180/5/3 181/5/3
f 184/4/3 181/4/3 178/4/3
f 185/4/3 181/4/3 184/4/3
f 188/4/3 184/4/3 183/4/3
f 189/4/3 187/4/3 186/4/3
f 191/4/3 188/4/3 183/4/3
f 192/3/3 190/3/3 189/3/3
f 192/4/3 189/4/3 186/4/3
f 193/3/3 190/3/3 192/3/3
f 194/4/3 191/4/3 183/4/3
f 195/4/3 192/4/3 186/4/3
f 195/4/3 193/4/3 192/4/3
f 196/4/3 193/4/3 195/4/3
f 197/4/3 194/4/3 183/4/3
f 198/4/3 194/4/3 197/4/3
f 201/4/3 195/4/3 186/4/3
f 202/4/3 195/4/3 201/4/3
f 203/5/3 199/5/3 198/5/3
f 204/5/3 199/5/3 203/5/3
f 205/4/3 201/4/3 200/4/3
f 206/4/3 201/4/3 205/4/3
f 211/4/3 208/4/3 207/4/3
f 212/4/3 208/4/3 211/4/3
f 213/2/3 210/2/3 209/2/3
f 214/2/3 210/2/3 213/2/3
f 215/2/3 210/2/3 214/2/3
f 216/2/3 210/2/3 215/2/3
f 217/2/3 213/2/3 209/2/3
f 218/1/3 214/1/3 213/1/3
f 218/2/3 213/2/3 217/2/3
f 219/2/3 215/2/3 214/2/3
f 219/1/3 214/1/3 218/1/3
f 220/1/3 216/1/3 215/1/3
f 220/2/3 215/2/3 219/2/3
f 221/2/3 210/2/3 216/2/3
f 221/1/3 216/1/3 220/1/3
f 222/2/3 210/2/3 221/2/3
f 225/4/3 224/4/3 223/4/3
f 226/4/3 224/4/3 225/4/3
f 229/4/3 228/4/3 227/4/3
f 230/4/3 228/4/3 229/4/3
f 231/4/4 232/4/4 234/4/4
f 232/5/4 233/5/4 235/5/4
f 234/4/4 232/4/4 235/4/4
f 235/5/4 233/5/4 236/5/4
f 237/4/4 238/4/4 243/4/4
f 243/4/4 238/4/4 244/4/4
f 239/2/4 240/2/4 245/2/4
f 240/1/4 241/1/4 245/1/4
f 241/2/4 242/2/4 246/2/4
f 245/1/4 241/1/4 246/1/4
f 246/2/4 242/2/4 247/2/4
f 247/2/4 242/2/4 248/2/4
f 239/2/4 245/2/4 249/2/4
f 245/2/4 246/2/4 249/2/4
f 246/2/4 247/2/4 249/2/4
f 247/1/4 248/1/4 250/1/4
f 249/2/4 247/2/4 250/2/4
f 248/2/4 242/2/4 251/2/4
f 250/1/4 248/1/4 251/1/4
f 251/2/4 242/2/4 252/2/4
f 253/4/4 254/4/4 255/4/4
f 255/4/4 254/4/4 256/4/4
f 257/4/4 258/4/4 261/4/4
f 261/4/4 258/4/4 262/4/4
f 262/4/4 263/4/4 264/4/4
f 264/4/4 263/4/4 265/4/4
f 259/4/4 260/4/4 267/4/4
f 267/4/4 260/4/4 268/4/4
f 265/4/4 266/4/4 269/4/4
f 259/4/4 267/4/4 270/4/4
f 269/4/4 266/4/4 273/4/4
f 273/4/4 266/4/4 274/4/4
f 270/4/4 271/4/4 275/4/4
f 259/4/4 270/4/4 275/4/4
f 275/4/4 271/4/4 276/4/4
f 272/4/4 273/4/4 278/4/4
f 278/4/4 273/4/4 279/4/4
f 276/4/4 277/4/4 280/4/4
f 280/4/4 277/4/4 281/4/4
f 282/5/4 283/5/4 284/5/4
f 284/5/4 283/5/4 285/5/4
f 286/4/4 287/4/4 289/4/4
f 287/5/4 288/5/4 290/5/4
f 289/4/4 287/4/4 290/4/4
f 290/5/4 288/5/4 291/5/4
f 291/3/4 292/3/4 293/3/4
f 293/3/4 292/3/4 294/3/4
f 293/4/4 294/4/4 298/4/4
f 294/3/4 295/3/4 299/3/4
f 298/4/4 294/4/4 299/4/4
f 299/3/4 295/3/4 300/3/4
f 296/4/4 297/4/4 301/4/4
f 301/4/4 297/4/4 302/4/4
f 298/4/4 299/4/4 304/4/4
f 299/4/4 300/4/4 304/4/4
f 304/4/4 300/4/4 305/4/4
f 302/4/4 303/4/4 306/4/4
f 306/4/4 303/4/4 307/4/4
f 298/4/4 304/4/4 308/4/4
f 308/4/4 304/4/4 309/4/4
f 310/4/4 311/4/4 312/4/4
f 312/4/4 311/4/4 313/4/4
f 310/4/4 312/4/4 314/4/4
f 312/3/4 313/3/4 314/3/4
f 314/3/4 313/3/4 315/3/4
f 310/4/4 314/4/4 316/4/4
f 314/4/4 315/4/4 316/4/4
f 316/4/4 315/4/4 317/4/4
f 317/4/4 315/4/4 318/4/4
f 318/4/4 315/4/4 319/4/4
f 322/2/5 321/2/5 320/2/5
f 323/2/5 321/2/5 322/2/5
f 326/4/5 325/4/5 324/4/5
f 327/4/5 325/4/5 326/4/5
f 328/4/5 326/4/5 324/4/5
f 329/4/5 325/4/5 327/4/5
f 330/4/5 328/4/5 324/4/5
f 330/4/5 329/4/5 328/4/5
f 331/4/5 325/4/5 329/4/5
f 331/4/5 329/4/5 330/4/5
f 334/4/5 333/4/5 332/4/5
f 335/4/5 333/4/5 334/4/5
f 342/3/5 337/3/5 336/3/5
f 343/4/5 338/4/5 337/4/5
f 343/3/5 337/3/5 342/3/5
f 344/3/5 339/3/5 338/3/5
f 344/4/5 338/4/5 343/4/5
f 345/4/5 340/4/5 339/4/5
f 345/3/5 339/3/5 344/3/5
f 346/4/5 340/4/5 345/4/5
f 348/4/5 342/4/5 341/4/5
f 349/4/5 342/4/5 348/4/5
f 350/4/5 342/4/5 349/4/5
f 351/5/5 347/5/5 346/5/5
f 352/5/5 347/5/5 351/5/5
f 353/3/5 350/3/5 349/3/5
f 354/3/5 350/3/5 353/3/5
f 355/4/5 352/4/5 351/4/5
f 356/4/5 352/4/5 355/4/5
f 357/3/5 356/3/5 355/3/5
f 358/3/5 356/3/5 357/3/5
f 359/4/5 354/4/5 353/4/5
f 362/4/5 358/4/5 357/4/5
f 363/4/5 358/4/5 362/4/5
f 364/4/5 360/4/5 359/4/5
f 364/4/5 359/4/5 353/4/5
f 365/4/5 360/4/5 364/4/5
f 366/4/5 360/4/5 365/4/5
f 367/4/5 362/4/5 361/4/5
f 368/4/5 362/4/5 367/4/5
f 369/4/5 366/4/5 365/4/5
f 369/4/5 367/4/5 366/4/5
f 370/4/5 367/4/5 369/4/5
f 375/4/5 372/4/5 371/4/5
f 376/4/5 372/4/5 375/4/5
f 377/4/5 374/4/5 373/4/5
f 378/4/5 374/4/5 377/4/5
f 382/4/5 380/4/5 379/4/5
f 383/4/5 382/4/5 381/4/5
f 384/4/5 380/4/5 382/4/5
f 384/4/5 382/4/5 383/4/5
f 387/4/5 386/4/5 385/4/5
f 388/4/5 386/4/5 387/4/5
f 389/5/5 388/5/5 387/5/5
f 390/5/5 388/5/5 389/5/5
f 391/4/6 392/4/6 395/4/6
f 395/4/6 392/4/6 396/4/6
f 393/5/6 394/5/6 397/5/6
f 397/5/6 394/5/6 398/5/6
f 399/5/6 400/5/6 401/5/6
f 401/5/6 400/5/6 402/5/6
f 402/4/6 403/4/6 406/4/6
f 403/3/6 404/3/6 407/3/6
f 406/4/6 403/4/6 407/4/6
f 404/4/6 405/4/6 408/4/6
f 407/3/6 404/3/6 408/3/6
f 408/4/6 405/4/6 409/4/6
f 410/4/6 411/4/6 412/4/6
f 412/4/6 411/4/6 413/4/6
f 413/4/6 414/4/6 415/4/6
f 415/4/6 414/4/6 416/4/6
f 415/4/6 416/4/6 418/4/6
f 416/4/6 417/4/6 418/4/6
f 418/4/6 417/4/6 419/4/6
f 419/4/6 417/4/6 420/4/6
f 410/4/6 412/4/6 421/4/6
f 421/4/6 412/4/6 422/4/6
f 418/4/6 419/4/6 425/4/6
f 419/5/6 420/5/6 426/5/6
f 425/4/6 419/4/6 426/4/6
f 426/5/6 420/5/6 427/5/6
f 422/3/6 423/3/6 428/3/6
f 428/3/6 423/3/6 429/3/6
f 424/4/6 425/4/6 430/4/6
f 425/4/6 426/4/6 430/4/6
f 430/4/6 426/4/6 431/4/6
f 432/4/6 433/4/6 436/4/6
f 436/4/6 433/4/6 437/4/6
f 434/4/6 435/4/6 438/4/6
f 438/4/6 435/4/6 439/4/6
f 440/4/6 441/4/6 444/4/6
f 444/4/6 441/4/6 445/4/6
f 442/4/6 443/4/6 447/4/6
f 447/4/6 443/4/6 448/4/6
f 445/3/6 446/3/6 449/3/6
f 446/4/6 447/4/6 450/4/6
f 449/3/6 446/3/6 450/3/6
f 450/4/6 447/4/6 451/4/6
f 452/3/6 453/3/6 456/3/6
f 453/4/6 454/4/6 457/4/6
f 456/3/6 453/3/6 457/3/6
f 457/4/6 454/4/6 458/4/6
f 455/4/6 456/4/6 460/4/6
f 458/4/6 459/4/6 460/4/6
f 457/4/6 458/4/6 460/4/6
f 456/4/6 457/4/6 460/4/6
f 460/4/6 459/4/6 461/4/6
f 461/4/6 459/4/6 462/4/6
f 462/4/6 459/4/6 463/4/6
f 461/4/6 462/4/6 464/4/6
f 464/4/6 462/4/6 465/4/6
